<?xml version="1.0" encoding="UTF-8"?>
<svg version="1.1" viewBox="0 0 977 983" width="977" height="983" xmlns="http://www.w3.org/2000/svg">
<path transform="translate(0)" d="m0 0h977v983h-977z" fill="#D1D0D0"/>
<path transform="translate(402,225)" d="m0 0h2l-2 8-2 1-1 6h-2v5l1 2-3 3 1 6-3 4 1 6-2 3 1 5v3l-3 5 2 7-2 2v6l1 3-1 2v6l1 4-1 1v6l2 2-1 8 3 5-2 3 1 6 2 3-2 3 1 5 3 4-2 3v5l1 3 4 1-1 9 1 4 5 1-2 8 3 5 6 2-3 6 1 7 3 3 6 2-1 8 3 6 4 2h6l1 9 4 6 4 2h7l5-2 2 10 1 4 5 2 2 1h7l6-4 4-2 3 6 6 3 8-1 5-4 2-4 7 5 9 1 7-4 2-5 1-8 5 2h7l5-3 3-4 1-10h6l6-2 1-10-1-4 8-3 2-4v-6l-2-5 7-3 1-2v-6l-2-4 5-2 2-6-1-6 4-4v-8l-2-1 4-4-1-6v-3h2v-8l-1-4 2-2-1-9 3-4-1-5v-4l1-5-2-5 2-2-1-5-2-4 2-3-1-5-2-2 1-9-2-4 1-5-3-4 1-1v-5l-2-4-1-5-2-6-2-1-2-7 2-1 10 6 12 5 19 3 2 8 4 25 3 28 1 28v21l-1 28-5 42-7 34-9 29-7 19-8 18-12 21-12 16-12 13-11 10-15 9-12 5-8 2-9 1h-22l-14-2-16-6-16-10-15-14-11-13-10-15-10-18-9-20-7-19-8-27-7-35-4-31-1-16v-63l2-24 4-28 3-15 1-1 18-3 12-5z" fill="#D2D1D1"/>
<path transform="translate(430,184)" d="m0 0h1l-1 8-2 4 1 5 16 8 15 5 17 3 22 1v1h-16v2h-14l2 4-1 7-5 4-7-1-4-5v-6l4-5-8-4-6-2 1 6-3 5-3 2-7-1 6 12 8 12 9 11 4 3v2l4 2 9 6 14 5h9l12-4 10-6 13-12 8-11 4-2-1 4-8 11-11 11-14 9-5 2h-3v2l4 2 4 5 2 5v11l-5 8-7 5-4 1h-7l-10-5-5-8-1-3v-8l4-9 6-5-16-8-13-11-10-12-11-18-8-17-2-5-2-1 3 15 2 2v6l1 1v5h2l1 7 5 5v7 2l5 3 1 7-1 3 4 2 2 4v8l6 3 2 3v7l-1 3 7 1 5 6v6l7-1 6 4 2 2 1 4 4-2 3-1h10l7 4 1-6 5-4 6-1 3 1 1-8 4-4 7-1-1-9 5-6 4-2-1-5 2-5 2-2h3l-2-7 3-5 4-3-1-7 4-4h2l-1-6 4-9 1-7 2-5 4-2 2-3 4 2v2l3 1 3 3-1 6h2l1-2 1 1v5l4 2 2 10 2 4v5 3l2 2-1 7 2 2v5l-1 4 3 4-1 5v4l2 3-1 4-1 3 2 3-1 5v4l1 5-3 4 1 9-2 2 1 10-3 4 2 3-1 6-3 2 2 3v6l-4 4 1 7-3 6-4 2 2 3v6l-3 4-6 1 3 5v6l-3 5-7 3 1 8-2 5-6 3h-5l-1 9-6 7-3 1h-7l-4-2-2 10-5 5-4 2-9-1-7-5-3 5-4 3-8 1-8-5-1-5-8 6-2 1h-7l-7-4-3-6-1-7-4 2h-7l-6-4-3-5-1-8-7-1-5-5-1-6 2-5-6-1-5-6 1-7 2-4-6-2-3-5 2-7-4-2-2-4 1-7 1-2-4-1-2-3 1-7v-3l-3-4 1-5v-3l-2-3 1-6v-3l-2-3 1-8-2-2v-6l1-4-1-1v-6l1-4-1-1v-6l2-4-2-5 3-5v-3l-1-5 2-5-1-4 3-5-1-5 3-4-1-4 1-2h2v-6l3-1v-5l2-3-4 1 6-8 8-7 9-13 4-9 1-4z" fill="#5E0E1A"/>
<path transform="translate(476,141)" d="m0 0h28l20 3 11 3 10 4 5 4 2 3v23l4 12 4 8 9 12 11 9 14 8 11 4 17 2 2 6 5 31 3 31 1 18v35l-2 29-4 31-4 22-6 25-10 30-9 21-10 19-7 11-9 12-9 10-11 11-13 9-14 7-19 5h-30l-17-4-17-8-12-9-10-9-5-5v-2h-2l-14-19-9-15-8-16-8-19-10-30-7-30-5-30-3-33v-63l4-39 5-31 1-1 17-2 14-5 11-7 2 1-2 4-10 6-15 5-14 2-4 21-4 30-1 16v63l2 24 4 28 7 34 8 26 11 28 11 21 11 17 8 10 9 10 10 9 16 10 16 6 14 2h22l13-2 12-4 14-8 11-8 12-12 11-14 9-14 9-16 11-26 8-24 5-19 6-29 5-42 1-28v-21l-1-28-4-36-4-25h-8l-14-3-20-10-1 3h-2v-5l-5-5v-2l-4-1-4 5-2-1-1 5-2 9-3 7v6l-4 2-1 7 1 3-6 4-1 4 1 6-5 3-1 5 1 5-6 3-3 4v9l-8 3-3 5-1 5-9 1-5 5-1 4-5-2-2-1h-10l-5 3-3-1-2-5-6-4h-7l-2-8-3-3-7-2v-10l-4-4-4-2v-8l-1-4-5-2 1-8-3-3-4-3 1-1v-7l-5-5v-7h-2l-2-9-1-4-2-5-1-11 3 1 7 16 8 15 7 10 9 11 13 11 16 8-5 5h-2l-3 9v8l5 10 10 5h7l7-3 5-4 3-6v-11l-4-8-5-4v-2l10-4 14-10 9-9 8-11-1-1-4 4-8 10-12 11-14 7-7 2h-9l-14-5-10-7-10-9-10-13-7-11-3-6v-3h7l4-3 1-9 8 2 7 3-4 6v6l5 5 7-1 3-5-1-6-1-3h8l7 1v-2l-23-4-18-6-14-8-1-5 3-7-1-7 1-14-1-9 6-7 8-4 19-5z" fill="#120406"/>
<path transform="translate(430,184)" d="m0 0h1l-1 8-2 4 1 5 16 8 15 5 17 3 22 1v1h-16v2h-14l2 4-1 7-5 4-7-1-4-5v-6l4-5-8-4-6-2 1 6-3 5-3 2-7-1 6 12 8 12 9 11 4 3v2l4 2 9 6 14 5h9l12-4 10-6 13-12 8-11 4-2-1 4-8 11-11 11-14 9-5 2h-3v2l4 2 4 5 2 5v11l-5 8-7 5-4 1h-7l-10-5-5-8-1-3v-8l4-9 6-5-16-8-13-11-10-12-11-18-8-17-2-5-2-1 3 15 2 2v6l1 1v5h2l1 7 5 5v7 2l5 3 1 7-1 3 4 2 2 4v8l6 3 2 3v7l-1 3 7 1 5 6v6l7-1 6 4 2 2 1 4 4-2 3-1h10l7 4 1-6 5-4 6-1 3 1 1-8 4-4 7-1-1-9 5-6 4-2-1-5 2-5 2-2h3l-2-7 3-5 4-3-1-7 4-4h2l-1-6 4-9 1-7 2-5 4-1v10l-1 4-1 12-3 3 2 3-1 7-5 2 2 4v6l-4 4v10l-4 4h-4l2 4v8l-5 5-5 2 1 1v8l-5 6h-9l1 6-3 6-5 3h-12l-2 6-6 5-2 1h-8l-7-4-3-5-2-3h-11l-6-5-1-2v-8h-9l-4-4-1-9 1-2-8-4-2-5 1-7 1-2-5-2-3-3v-7l2-3-4-2-2-3 1-7 1-1-5-4-1-5 3-4-4-3v-7l-1-4 1-3-2-4-1-10-2 2v-2l-5 4-4 4-5 1 6-8 8-7 9-13 4-9 1-4z" fill="#5D0D18"/>
<path transform="translate(402,254)" d="m0 0 2 4 1 3h-2l1 7v4 5l1 4-1 1v6l3 4-3 2-1 6 1 4 3 1-2 4v6l2 3 3 1v2h-2l-1 10 5 5 3 1-3 6v10l5 4 4 1-2 7 1 8 4 4 10 2-1 3v9l4 6 3 1h11l2 9 5 6 3 1h9l3-2 4 1 4 7 7 3 8-1 5-3 4-7 5 1 2 1h8l5-3h2l2-6 1-7h12l5-4 2-4-1-8-1-3 9-1 5-4 1-3v-7l-2-6 6-2 3-3 1-8-3-5-1-3 7-3 1-3v-7l-2-5 4-3 1-5-2-6 3-4-1-7-2-4h2v-8l-1-4 1-1v-6l-1-2h2v-8h-2l2-6 3 1-1 5 2 6-2 7 4 2-3 5 1 5 2 3-2 3 1 6v3l-1 6 2 4-2 3 1 6 1 2-3 2-1 4 2 6-2 2v6l1 4-3 3 1 8-3 2-1 6 1 4-5 3-1 7 1 4-6 3-1 2v6l1 4-7 2-2 3v11l-9 2-3 5-1 6h-9l-6 4-2 5v7l-7-3h-7l-6 4-4 5-6-5-6-1-6 2-4 4h-2l-4-6-5-3h-7l-6 2-2-10-6-5h-10l-2-9-4-3-7-1 1-9-3-5-7-2 1-3v-8l-4-3-3-2 1-2v-7l-1-3-5-1 1-8-4-4 1-8-3-5 1-2v-6l-2-4 2-3-1-5-2-4 1-1v-6l-1-4 1-1v-6l-1-4 1-1v-6l-2-3 3-3-1-7-1-3 3-3-1-5v-3l1-5v-4z" fill="#D2D1D1"/>
<path transform="translate(444,213)" d="m0 0 8 2 7 3-4 6v6l5 5 7-1 3-5-1-6-1-3 18 1v2h-2l-1 3v7l3 4h9l3-3 1-6-4-7 18-1-1 3v8l2 4h7l4-2 1-2v-8l-4-5 13-5h2l2 10 3 2h8l-2 5-6 11-9 12-9 10-10 8-12 6-7 2h-9l-14-5-10-7-10-9-10-13-7-11-3-6v-3h7l4-3z" fill="#D2D1D1"/>
<path transform="translate(434,171)" d="m0 0 15 6 20 4 27 1 17-1 22-5 11-5h2l2 13 5 14-1 3-15 8-14 5-21 4h-27l-21-4-16-6-12-7-1-5 4-11z" fill="#D2D1D1"/>
<path transform="translate(419,209)" d="m0 0 3 1 7 16 8 15 7 10 9 11 13 11 16 8-5 5h-2l-3 9v8l5 10 10 5h7l7-3 5-4 3-6v-11l-4-8-5-4v-2l10-4 14-10 9-9 10-14 10-18 7-16 3 1-3 14-1 1-2 9-3 7v6l-4 2-1 7 1 3-6 4-1 4 1 6-5 3-1 5 1 5-6 3-3 4v9l-8 3-3 5-1 5-9 1-5 5-1 4-5-2-2-1h-10l-5 3-3-1-2-5-6-4h-7l-2-8-3-3-7-2v-10l-4-4-4-2v-8l-1-4-5-2 1-8-3-3-4-3 1-1v-7l-5-5v-7h-2l-2-9-1-4-2-5z" fill="#D2D1D1"/>
<path transform="translate(484,144)" d="m0 0h12l24 2 18 5 10 6 1 7-4 5-7 4-14 4-23 3h-21l-22-3-16-5-8-5-2-4 1-5 6-5 14-5 8-2z" fill="#D2D1D1"/>
<path transform="translate(565,215)" d="m0 0h1v18l-2 20-1 5-1 9-2 2v6l-3 3 1 8-3 3v8l-3 3v6l1 3-6 1-1 9 1 3-8 3-3 5v6l1 4-9 1-5 5-1 11h-9l-6 4-3 6-8-5-8-1-8 4-3 3-3-8-6-3h-9v-9l-3-5-6-3h-6l2-9-3-5v-2l-9-2 1-9-1-2-5-2v-11l-3-1v-10l-3-1 1-8-1-3h-2v-7l-2-3-1-11-2-7v-12l-1-3v-16l2 1 1 11 2 4-1 5 1 3v5l4 3-3 4 1 5 5 4-2 4 1 6 4 3-1 3v7l3 3 5 2-2 4 1 10 9 3-1 9 3 5 1 1 9 1 2 10 5 4h11l3 4 3 5 6 3h8l6-4 4-7 4-1h8l5-3 2-5v-6l9-1 4-5v-8l-1-2 9-4 1-2v-8l-1-4 5-2 2-2v-10l3-1 1-9-1-4 4-2 1-7-2-4 3-2v-6l1-6 2-15z" fill="#D2D1D1"/>
<path transform="translate(430,184)" d="m0 0h1l-1 8-2 4 1 5 16 8 15 5 17 3 22 1v1h-16v2h-14l2 4-1 7-5 4-7-1-4-5v-6l4-5-8-4-6-2 1 6-3 5-3 2-7-1 6 12 8 12 9 11 4 3v2l4 2 9 6 14 5h9l12-4 10-6 13-12 8-11 4-2-1 4-8 11-11 11-14 9-5 2h-3v2l4 2 4 5 2 5v11l-5 8-7 5-4 1h-7l-10-5-5-8-1-3v-8l4-9 6-5-16-8-13-11-10-12-11-18-8-17-2-5-2-1v9l-1-2h-3l-1 3v-2l-5 4-4 4-5 1 6-8 8-7 9-13 4-9 1-4z" fill="#130406"/>
<path transform="translate(401,222)" d="m0 0 2 1-2 4-10 6-15 5-14 2-4 21-4 30-1 16v63l2 24 4 28 7 34 8 26 11 28 11 21 11 17 8 10 9 10 10 9 16 10 16 6 14 2h22l13-2 12-4 14-8 11-8 12-12 11-14 9-14 9-16 11-26 8-24 5-19 6-29 5-42 1-9 3-3-1 21-4 31-4 22-6 25-10 30-9 21-10 19-7 11-9 12-9 10-11 11-13 9-14 7-19 5h-30l-17-4-17-8-12-9-10-9-5-5v-2h-2l-14-19-9-15-8-16-8-19-10-30-7-30-5-30-3-33v-63l4-39 5-31 1-1 17-2 14-5z" fill="#130406"/>
<path transform="translate(481,280)" d="m0 0 4 1h9l4 1v-2h2v2l4 2 4 5 2 5v11l-5 8-7 5-4 1h-7l-10-5-5-8-1-3v-8l4-9 6-5z" fill="#5A0C17"/>
<path transform="translate(428,339)" d="m0 0 11 4-2 6 1 7 2 5 11 1h2v10l3 6 6 3 8-1 4-3 3 1 3 6 8 4 8-1 6-4 3-6 5 2 4 2 8-1 5-5 1-3v-10h8l7-3-2 6 1 10h-7l-6 3-3 4-1 7-2 1-2-1h-9l-6 4-2 3-1 5-4-2-5-2-9 1-6 3-4-9-5-3h-9l-4 1-3-12-5-2-6-1h-4l1-11-3-5-9-3 2-5v-7z" fill="#D1D0D0"/>
<path transform="translate(631,365)" d="m0 0h1l-1 21-4 31-4 22-6 25-10 30-9 21-10 19-7 11-9 12-9 10-11 11-13 9-14 7-12 3 2-4 12-4 14-8 11-8 12-12 11-14 9-14 9-16 11-26 8-24 5-19 6-29 5-42 1-9z" fill="#140406"/>
<path transform="translate(476,141)" d="m0 0h28l20 3 4 2-1 2-16-2-15-1h-12l-23 2-17 5-8 4-3 3 1 7 8 5 16 5 22 3h21l23-3 14-4 5-3 2 1 1 2-11 5-22 5-27 1-17-1-20-4-12-5-3-2-1 10-2 4h-2l1-17-1-9 6-7 8-4 19-5z" fill="#140406"/>
<path transform="translate(182,758)" d="m0 0h3l6 14 7 17v3h2l1-5 3-10-7-17 4-2 5 11v3h2l1-5 4-9 4 1-2 6-5 12 3 9 2 5 5-10 9-22 3-1 2 2-13 30-5 12-2-1-6-15v-2h-2l-3 10-4 8-2-2-12-30-4-11z" fill="#090203"/>
<path transform="translate(530,758)" d="m0 0h2v20l25-1 1-18 4-1v42l-5 1 1-19h-26v19h-4v-42z" fill="#0B0304"/>
<path transform="translate(77,256)" d="m0 0h13v3l3 1v12h-3l-1 3-2 3h-3l-1 3-2 2h-3v-12h-12v-3h2v-3h3v-3l3-1 1-2h2z" fill="#701020"/>
<path transform="translate(77,388)" d="m0 0h13l3 5v11h-3l-3 6h-3v3h-3l-1 3-2-1v-12h-13l1-3h2v-3h3v-3h3v-2l2-1z" fill="#7D2634"/>
<path transform="translate(410,778)" d="m0 0 9 1 5 6 1 5-3 7-6 4h-6l-6-4-3-6 2-8 4-4z" fill="#070203"/>
<path transform="translate(77,719)" d="m0 0h13v3l3 1v11l-3 1-1 2-3 4-2-1v3h-3v3h-3v-12h-12v-3h2v-3h3v-3h3v-3h3z" fill="#761C2B"/>
<path transform="translate(836,322)" d="m0 0h13v3l3 1v12h-3v3h-3v3h-3l-1 3-4 2-1-2v-10h-12v-3l3-3h2l1-3h3v-3h2z" fill="#5D0D18"/>
<path transform="translate(77,851)" d="m0 0h13v3h2l1 2v10l-5 4-2 3-5 5h-3v-12h-12v-3l2-2 3-1v-3h3v-3h3z" fill="#7A2533"/>
<path transform="translate(836,256)" d="m0 0h13v3l3 1v12h-3v3h-3v3h-3l-1 3-4 2-1-2v-10h-12v-3h3v-3l2-2 4-1v-3h2z" fill="#700F1F"/>
<path transform="translate(77,190)" d="m0 0h13v3h2l1 2v10l-3 1-3 6h-2l-1 2h-3v3l-3-1v-11h-12v-3h2v-3h3v-3h3v-3h3z" fill="#7C2735"/>
<path transform="translate(836,124)" d="m0 0h13v3h3v13h-3v3h-3l-1 3-2-1v3h-3v3l-3-1v-11h-12v-3h3v-3l5-5 3-1z" fill="#7C2635"/>
<path transform="translate(77,785)" d="m0 0h13v2l3 3v10l-3 1-1 2-3 4-2-1-1 4-2-1v3h-3v-12h-12v-3l2-2 3-1v-3l3-1v-2h3z" fill="#7B2433"/>
<path transform="translate(836,190)" d="m0 0h13v3l3 1v12h-3l-1 3-5 5h-3v3h-2l-1-2v-10h-12v-3h3v-3h2v-3h4v-3h2z" fill="#7C2634"/>
<path transform="translate(99,322)" d="m0 0h12v3h3v3h3v3h3v3h3v3h-13v12h-3v-2h-3l-2-3-1-3-3-1-2-2v-13z" fill="#7B2332"/>
<path transform="translate(99,454)" d="m0 0h12l1 3 2 1v2h3v3h3v3h3v3h-13v13h-3v-3h-3v-3l-3-1-2-5h-3v-12l3-1z" fill="#7B2533"/>
<path transform="translate(858,454)" d="m0 0h12v3h3v3h3v3h3v3h3v3h-13v13l-3-1v-2h-3v-3h-2v-3h-3v-3h-3v-13h3z" fill="#731B29"/>
<path transform="translate(77,454)" d="m0 0h12l1 4 3 1v10l-3 1-1 3-2 3h-3v3h-3l-1 3-2-1v-11l3-1v-3h-3v3h-13l1-3h2v-3h3v-3h3l1-3h2z" fill="#771E2C"/>
<path transform="translate(99,388)" d="m0 0h12v3l3 1v2h3v3h3v3h3v3h-13v12h-3v-2h-3v-3l-3-1-2-5h-3v-13z" fill="#7A2231"/>
<path transform="translate(77,653)" d="m0 0h13v3l3 1v11l-3 1v2l-5 4-1 2h-3v3h-3v-12h3v-3h-3v2l-2 1h-10v-3h2v-3h3v-3h3v-3h3z" fill="#702933"/>
<path transform="translate(78,358)" d="m0 0h3v3h3v3h3l2 3 1 3h3v11l-3 1v3h-13v-3h-3v-2l-3-1v-2h-3v-3h-2v-3h12z" fill="#7C2836"/>
<path transform="translate(77,124)" d="m0 0h13v3l3 1v12h-3l-1 2-5 6h-3v3h-3v-12h3v-3h-3l-1 3h-11v-3h2v-3h3v-3h3v-3h3z" fill="#771F2D"/>
<path transform="translate(99,719)" d="m0 0h12v3h3v3h3v3h3v3h3v3h-13v12h-3v-3h-3v-3h-3l-5-5v-13z" fill="#7A2331"/>
<path transform="translate(79,292)" d="m0 0h2v3h3v3h3l2 3 1 3h3v12h-3v3h-13v-3h-3v-2l-3-1v-2h-2l-3-3v-3h12v-12z" fill="#79202F"/>
<path transform="translate(79,226)" d="m0 0h2v3h3v3h3l2 3 1 3h3v12h-3v3h-13v-3h-3v-2l-3-1v-2h-2l-3-3v-3h12v-12z" fill="#741E2C"/>
<path transform="translate(99,851)" d="m0 0h12v3h3v3h3v3h3v3h3v3h-13v12h-3v-3h-3v-3h-3l-2-5h-3v-13z" fill="#6A0415"/>
<path transform="translate(79,689)" d="m0 0h2v3h3v3h3l4 5 2 1v12h-3v3h-13v-3h-3v-3h-3l-5-5v-3h12v-12z" fill="#771E2D"/>
<path transform="translate(858,322)" d="m0 0h12v3h3v3h3v3h3v3h3v3h-13v12h-3l-5-5v-3h-3v-3h-3v-13h3z" fill="#7B2533"/>
<path transform="translate(858,256)" d="m0 0h12v3h3v3h3v3h3v3h3v3h-13v12h-3l-5-5v-3h-3v-3h-3v-13h3z" fill="#7F2D3A"/>
<path transform="translate(99,785)" d="m0 0h12v3h3v3h3v3h3v3h3v3h-13v12h-3v-3h-3v-3h-3l-2-4-3-1v-13z" fill="#6B0415"/>
<path transform="translate(78,623)" d="m0 0h3v3h3v3h3l4 5 2 1v11l-3 1v3h-13v-3h-3v-3h-3l-5-6v-2h12z" fill="#6F1121"/>
<path transform="translate(80,424)" d="m0 0 1 3h3v3h3l2 4 4 2v12h-3v3h-13v-3h-3v-2h-3v-3l-3-1-2-2v-3h12v-12z" fill="#7B2835"/>
<path transform="translate(858,190)" d="m0 0h12v3h3v3h3v3h3v3h3v3h-13v12h-3v-3h-3l-2-2v-3h-3v-3h-3v-13h3z" fill="#7A2432"/>
<path transform="translate(80,821)" d="m0 0 1 3h3v3h3l2 3 4 3v10l-1 2h-2v3h-13v-3h-3l-3-3v-2l-3-1v-2h-2v-3h12v-12z" fill="#690515"/>
<path transform="translate(856,785)" d="m0 0h13v3h2v3h3v3h3v3h3v3h-13v12h-2l-5-5-1-3-3-1v-2h-3v-13h3z" fill="#700E1E"/>
<path transform="translate(834,785)" d="m0 0h13v3h3v13h-3v3h-3l-1 3-4 2-1 3h-2v-12h-13v-3h3v-3h3v-3h3v-3h2z" fill="#7B2634"/>
<path transform="translate(834,719)" d="m0 0h13v3h3v13h-3v3h-3l-1 3-5 5h-2v-12h-13v-3h3v-3h3v-3h3v-3h2z" fill="#771D2C"/>
<path transform="translate(858,124)" d="m0 0h12v3h3v3h3v3h3v3h3l-1 3h-12v12h-3v-3h-3l-2-2v-3h-3v-3h-3v-13h3z" fill="#7B2836"/>
<path transform="translate(79,755)" d="m0 0h2v3h3v3h3l2 3 4 3v9l-1 3h-2v3h-13v-3h-3v-3h-3v-2h-2l-3-3v-3h12v-12z" fill="#7B2332"/>
<path transform="translate(107,424)" d="m0 0h3v13h13v3h-3v3h-3v3h-3v2l-3 3h-12l-3-2v-13l3-3h2v-3h3v-3h3z" fill="#7A2735"/>
<path transform="translate(838,226)" d="m0 0h2v3h3v3h3v3h3v3h3v12h-3v3h-13v-3h-2v-2l-6-3v-3h-3v-3h12v-11z" fill="#6A0415"/>
<path transform="translate(107,358)" d="m0 0h3v13h13v3h-3v3h-3v3h-3v2h-3v3h-12l-1-3h-2v-12l3-3h2v-3h3v-3h3z" fill="#7D2A37"/>
<path transform="translate(107,292)" d="m0 0h3v13h13v3h-3v3h-3l-1 3h-2v2l-3 3h-12l-1-3h-2v-12h2v-2l2-1 1-3h3v-3h3z" fill="#6C0718"/>
<path transform="translate(838,94)" d="m0 0h2v3h3v3h3l2 3 1 3h3v12h-3v3h-13v-3h-2l-4-4-2-1v-3h-3v-3h12v-10z" fill="#700D1E"/>
<path transform="translate(107,821)" d="m0 0h3v13h13v3h-3v3h-3v2h-3v3h-3v3h-13v-2l-2-1v-12l3-1v-2h2v-3h3v-3h3z" fill="#6F0E1E"/>
<path transform="translate(858,388)" d="m0 0h12v3l3 1v2h3v3h3v3h3v3h-13v12h-3l-3-3v-2h-2v-3h-3v-3h-3v-12h3v2l2-2-2-1z" fill="#771E2C"/>
<path transform="translate(107,226)" d="m0 0h3v13h13v3h-3v3h-3v2l-5 4-1 2h-12l-3-3v-12l3-3h2v-3h3v-3h3z" fill="#6A0415"/>
<path transform="translate(107,755)" d="m0 0h3v13h13v3h-3v3h-3v2h-3v3h-3v3h-12l-3-3v-12l3-1v-2h2v-3h3v-3h3z" fill="#7A2533"/>
<path transform="translate(99,653)" d="m0 0h12v3h3v3h3v3h3v3h3v3h-11l-2-1v-2h-3v3h3v12h-3v-3h-3v-3h-3l-5-5v-13z" fill="#731525"/>
<path transform="translate(866,292)" d="m0 0h3v13h13v3h-3v3h-3v3h-3v2l-3 3h-12v-3h-3v-12l3-3h3v-3h2v-3h3z" fill="#7A2533"/>
<path transform="translate(99,190)" d="m0 0h12v3h3v3h3v3h3v3h3l-1 3h-11l-1-3h-3v3h3v12h-3v-3h-3l-5-6v-2h-3v-13z" fill="#761D2C"/>
<path transform="translate(107,160)" d="m0 0h3v13h13v3h-3v3h-3v2h-3v3h-3v3h-12l-3-3v-12l3-3h2v-3h3v-3h3z" fill="#6F0E1E"/>
<path transform="translate(107,689)" d="m0 0h3v13h13l-1 3h-2l-1 3h-2v2h-3v3h-3v3h-12l-3-3v-12l3-1v-2h2v-3h3v-3h3z" fill="#711222"/>
<path transform="translate(107,623)" d="m0 0h3v13h13v2l-3 3h-3v3h-3v3h-3v3h-12v-3h-3v-13h2v-2l3-3h3v-3h3z" fill="#711725"/>
<path transform="translate(98,124)" d="m0 0h13v3h3v3h3v3h3v3h3l-1 3h-10l-2-1v-2h-3v3h3v12h-3v-3h-3v-3h-3l-2-5h-3v-13l2-2z" fill="#771C2C"/>
<path transform="translate(107,94)" d="m0 0h3v13h13l-1 3h-2v3h-3v2h-3v3h-3v3h-12l-3-3v-12l3-3h2v-3h3v-3h3z" fill="#7D2735"/>
<path transform="translate(866,226)" d="m0 0h3v13h13v3h-3v3h-3v2l-5 4-1 2h-12v-3h-3v-12l5-4 3-5h3z" fill="#751A29"/>
<path transform="translate(856,719)" d="m0 0h13v2l2 1v3h3v3h3v3h3v3h-12l-1-2-3-1 3 3v12l-3-1-4-4-1-3-3-1v-2h-3v-13h3z" fill="#6B0415"/>
<path transform="translate(838,292)" d="m0 0h2v3h3v3h3v3h3v3h3v12h-3v3h-13v-3h-2v-2l-4-1v-2h-2v-3h-3v-3h12v3h3v-3l-3-1v-9z" fill="#741727"/>
<path transform="translate(866,94)" d="m0 0h3v13h13l-1 3h-2v3h-3v2h-3v3h-3v3h-12l-3-3v-12l5-4 1-2h2v-3h3z" fill="#690515"/>
<path transform="translate(834,587)" d="m0 0h13v3h3v13h-3v2h-3l-1 4-1-1-1 3h-3v3h-2l-1-12h-10l-2-1v-2l5-4 4-5h2z" fill="#7D2837"/>
<path transform="translate(865,755)" d="m0 0h2v13h13v3h-3v3h-3v2l-3 3h-2v3h-13v-3h-3v-12l3-3h3v-3h3v-3z" fill="#701121"/>
<path transform="translate(865,623)" d="m0 0h2v13h13v2l-2 1-2 3-2 2h-3v3h-2v3h-13v-3h-3v-13h3v-2l5-4z" fill="#5F0C18"/>
<path transform="translate(866,160)" d="m0 0h3v13h13v3h-3v3h-3v2l-3 3h-3v3h-12v-3h-3v-12h3l1-3h2v-3h2v-3h3z" fill="#6F0F1F"/>
<path transform="translate(856,851)" d="m0 0h13v2l2 1v3h3v3h3v3h3v3h-12v-3h-4v3h3v12h-2l-5-5-1-3-3-1v-2h-3v-13h3z" fill="#6A0415"/>
<path transform="translate(836,755)" d="m0 0h2v3h3l2 3 1 3h3v2l3 1v12h-3v3h-13v-3h-2l-3-3v-2h-3v-3h-3v-3h13z" fill="#6E0F1F"/>
<path transform="translate(836,491)" d="m0 0h2v3h3l2 3 1 3 3-1v3h3v13h-3v3h-13v-3h-2l-4-5-5-4v-2h12z" fill="#6E0E1E"/>
<path transform="translate(77,322)" d="m0 0h12l4 5v11h-3l-1 3v-15l-2-1v3h-3v3h3l1-2 1 6-2 9h-3v3h-3l-1 3-2-1v-12h-13l1-3 2-2 3-1v-3h3v-3h3z" fill="#771E2D"/>
<path transform="translate(865,821)" d="m0 0h2v13h13v3h-3v3h-3v2l-3 3h-2l-1 3h-12v-3h-3v-12h3v-3h3v-3h3v-3h3z" fill="#6A0415"/>
<path transform="translate(836,557)" d="m0 0h2v3h3l2 3 1 3h3v2h3v13h-3v3h-13v-3h-2l-4-5-5-4v-2l12-1z" fill="#6B0415"/>
<path transform="translate(834,521)" d="m0 0h13v3h3v12l-3 1v2h-3l-1 3-2 3h-3v3h-2l-1-12-12-1v-2l5-4 4-5h2z" fill="#6F0F1F"/>
<path transform="translate(77,587)" d="m0 0h13v3l3 1v11l-5 4-1 2h-3v3h-3v3l-3-1v-11l3-3h3v-3h-3l-1 3h-2v2l-8 1-4-1v-2h2v-3h3v-3h3v-3h3z" fill="#741726"/>
<path transform="translate(867,424)" d="m0 0 2 1v12h13v3h-3v3h-3v3h-3v2l-3 3h-12v-2l2-2-1-1-1 2h-3v-12h3v-3h3v-3h2v-3h3z" fill="#78212F"/>
<path transform="translate(836,388)" d="m0 0h13v3h-3v3h2l1-2h3v12h-3l-1 3-2 3h-3v3h-3v2h-2l-1-2v-9l3-1 1-3h2v-3h-3v3h-3v3h-12v-3h3v-3l2-2 5-4z" fill="#700D1E"/>
<path transform="translate(834,851)" d="m0 0h13v3h3v13h-3v3h-3l-1 3-5 5h-2v-12h3v-3h2v-3h-3v3l-3 3h-12v-3h3v-3h3v-3h3v-3h2z" fill="#731827"/>
<path transform="translate(99,256)" d="m0 0h12v3h3v3h3v3h3v3h3v3h-13v12h-3v-3h-3l-3-3v-2l-3-1v-2h-2v-13l3 4h1l4 2v-3h-3v-3h-2z" fill="#761928"/>
<path transform="translate(834,653)" d="m0 0h13v3h3v13h-3l-1 3-8 8h-2v-12l3-3h2v-3h-3v3h-3v2l-6 1h-6v-3l5-4 1-2h3v-3h2z" fill="#6C0315"/>
<path transform="translate(866,358)" d="m0 0h3v13h13v3h-3v3h-3v3h-3v2l-3 3h-12v-2l2-2 3-1v-3h-3v2h-2v3h-3v-12h3v-3l3-3h2v-3h3z" fill="#731827"/>
<path transform="translate(79,491)" d="m0 0h2v3h3v3h3l2 3 4 3v10l-1 2h-2v3h-13v-3l-3-1-3-2v-3h-3v-3h-2v-2l6-1 6 1v2l3 1v2l3 1v2h3v-3h-3v-3h-3l-3-3v-11z" fill="#710F1F"/>
<path transform="translate(77,521)" d="m0 0h13v3h2l1 3v9l-5 4-1 2h-3v3h-3v3h-3v-12l3-3h3v-3h3v-3h-3l-1 3h-2v2l-3 3h-12v-2h2l1-3h2l1-3h2v-3h3z" fill="#6F0E1E"/>
<path transform="translate(838,160)" d="m0 0h2v3h3v3h3v3h3v3h3v12h-3v3h-13v-3h-2l-4-4-2-1v-3h-3v-3h12v3h3v3h3v2h3l-3-3v-2l-3-1v-2l-3-1v-8z" fill="#700D1E"/>
<path transform="translate(78,557)" d="m0 0h3v3h3v3h3l2 3 4 3v10l-1 2h-2v3h-13v-3l-3-1-3-2v-3l-3-1v-2h-2v-2h12l3 3v3h3v2h3v-3h-3v-3h-3l-3-3z" fill="#6F0E1E"/>
<path transform="translate(99,587)" d="m0 0h12v3h3v3h3v3h3v3h3l-1 3-12-1v-2l-3-1v-2l-3-1v-2h-3l1 3h2v3h3l3 3v12h-3v-3h-3v-3h-3l-2-5h-3v-13h3z" fill="#6D0B1B"/>
<path transform="translate(836,689)" d="m0 0 3 1 2 2v3h3v3h3v2l3 1v12h-3v3h-13v-3h-2l-3-3v-2h-3v-3l-3-1v-2h13l-1 3h3l3 3v2h3l-3-3v-2h-2v-3l-4-2z" fill="#6F0F1F"/>
<path transform="translate(98,521)" d="m0 0h13v3h3v3h3v3h3v3h3v2h-13v-3h-3l-3-3v-2h-3l1 3h2v3h3l3 3v12h-3v-3h-3v-3h-3l-2-5h-3v-13h3z" fill="#6D0B1B"/>
<path transform="translate(107,491)" d="m0 0h3v12l-3 3h-3v3h-2l-1 3h3v-2h3v-3l3-3h13v2h-3v3h-3v3h-3v3h-3v3h-12v-3h-3v-13l5-5h3v-3h3z" fill="#6E0B1B"/>
<path transform="translate(836,821)" d="m0 0h2v3h3v3h3v3h3v3h3v12h-3v3h-13v-3h-2l-3-3v-2h-3v-3h-3v-3h12v3h3v3h3v2h3l-3-3v-2h-2v-3h-3z" fill="#6F1020"/>
<path transform="translate(836,623)" d="m0 0h2v3h3l2 3 4 3v2l3 1v12h-3v3h-13v-3h-2l-4-5-5-4v-2h13v2l3 2 2 4h3v-3h-3l-5-6z" fill="#690515"/>
<path transform="translate(864,689)" d="m0 0h3v13h-3l-1 3h-2v2h-2v3h3v-2l6-6h12l-1 3h-2v3h-3v2h-3v3l-2 2v1h-13v-3h-3v-12l3-1v-2h3v-3h3v-3h3z" fill="#6B0315"/>
<path transform="translate(107,557)" d="m0 0h3v12l-3 3h-3v3h-3v3h3v-2l3-3h3v-3h13v2h-3v3h-3v3h-3v3h-3v3h-12v-3h-3v-12l4-4 1-2h3v-3h3z" fill="#6D0B1B"/>
<path transform="translate(865,491)" d="m0 0h2v12l-3 3h-2l-1 3h-2v3h3l1-3h2v-3l2-2h13v2h-3v3l-3 3h-3v3l-2 2v1h-13v-3h-3v-12l3-1 1-3h2v-2l5-4z" fill="#6A0415"/>
<path transform="translate(725,778)" d="m0 0h11v4 8l-3 4 4 5-1 7-3 3-8 1-5-3 1-3 7 2 4-2v-7h-6l-4 1v-4l-3-5 1-7z" fill="#0B0304"/>
<path transform="translate(856,521)" d="m0 0h13v3h2v3h3v3h3l3 3v2h-13v-2l-5-4v-2h-3v3l3 1v2h2l3 3v12l-3-1-6-7-2-1v-2h-3v-13h3z" fill="#6F0E1E"/>
<path transform="translate(367,563)" d="m0 0h8l3 3-7 3-2 4-1 21-3 6-4 3-8 1-7-4 2-1h6l5-4 1-3 1-18 3-9z" fill="#050202"/>
<path transform="translate(565,610)" d="m0 0 5 1 26 15 11 6 4 2-8 6h-2l-2-4-10-5-9-6-12-7-7-4z" fill="#070203"/>
<path transform="translate(389,585)" d="m0 0 7 6 1 2-5 3-13 30-4 8-5-2 1-5 13-30z" fill="#070203"/>
<path transform="translate(438,625)" d="m0 0 9 2 3 2-4 4-10 33v6l-10-2-1-2 4-4 9-30 1-7z" fill="#060203"/>
<path transform="translate(489,325)" d="m0 0h6l5 4 1 5-2 7-6 4-7-1-6-5v-6l6-7z" fill="#6D0315"/>
<path transform="translate(487,400)" d="m0 0 7 1 5 3 2 4-1 7-2 2h-3v2h-11v-2l-3-1-1-2v-8l1-2 5-3z" fill="#6D0315"/>
<path transform="translate(487,365)" d="m0 0h8l5 4 1 6-4 8-5 2-7-1-4-7v-7z" fill="#6D0315"/>
<path transform="translate(587,588)" d="m0 0 2 4 18 13 14 10 3 2-6 8-2-4-11-9-17-12-7-3z" fill="#070203"/>
<path transform="translate(604,558)" d="m0 0 4 5 33 15h5l-2 6-2 5-5-5-31-14-6-1 2-6z" fill="#050202"/>
<path transform="translate(525,630)" d="m0 0 2 4 13 35 3 4-9 4-2-1 1-5-12-32-1-4-3-1 3-2z" fill="#070203"/>
<path transform="translate(564,285)" d="m0 0h2l3 5-2 4-1 7 2 4-4 4v6l1 4-6 3-1 9 3 4v2l-7 3-3 5 1 8 1 3-10 3 1-4v-7l-2-5 9-3 2-2 1-8-3-5v-2l7-3v-10l4-4v-9l2-2v-7z" fill="#D2D1D1"/>
<path transform="translate(362,758)" d="m0 0 4 1 10 20 10-19 1-2 4 1-2 6-13 26-5 9-5 1 7-15-2-6-10-20z" fill="#0B0304"/>
<path transform="translate(476,141)" d="m0 0h28l20 3 4 2-1 2-16-2-15-1h-12l-23 2-17 5-8 3 2-5 15-5 15-3z" fill="#180507"/>
<path transform="translate(542,625)" d="m0 0 6 1 4 4 1 2v8l-5 7 10 11 11 7 3 2-9-1-13-7-10-10 5-5 1-2-1-9-4-4-6-2v-1z" fill="#080203"/>
<path transform="translate(424,202)" d="m0 0 4 2 7 4v2l5 1 2 1 4 1h-2l1 6-3 5-3 2-7-1-2-2-1-9-2 2-4-9z" fill="#540C16"/>
<path transform="translate(555,202)" d="m0 0 3 1v6l-4 7-1-2h-2l1 6-1 5-9 1-5-5v-8l6-3h4l2-4z" fill="#5A0B17"/>
<path transform="translate(478,641)" d="m0 0 1 2-2 5v9l3 10 7 9 6 3 11 1-4 2h-14l-8-4-6-9-1-3v-14l4-8z" fill="#090203"/>
<path transform="translate(493,634)" d="m0 0 11 1 8 5 5 6 2 6v11l-4 9-4 3 2-10-1-9-6-12-8-6-9-1-4-1z" fill="#070203"/>
<path transform="translate(511,393)" d="m0 0h8l5 2 1 1v11h-2l-1 3-10 2-5-6v-6z" fill="#6D0315"/>
<path transform="translate(285,778)" d="m0 0h6l4 4v18l-3 1h-3l-7-1-3-4v-7l4-4h8v-3l-7-1z" fill="#0C0304"/>
<path transform="translate(692,778)" d="m0 0h6l4 4v18l-3 1h-3l-7-1-3-4v-6l2-4 2-1h8l-1-3-6-1z" fill="#090303"/>
<path transform="translate(252,778)" d="m0 0 9 1 3 3-1 4-14 7 3 3h10l-1 4-2 1h-7l-6-4-2-3v-9l4-5z" fill="#0B0304"/>
<path transform="translate(762,778)" d="m0 0h6l6 5v2l-14 7h-2l1 3 2 1h10l1 3-4 2-9-1-5-5-1-2v-7l3-5z" fill="#0E0305"/>
<path transform="translate(588,778)" d="m0 0 9 1 3 3-1 4-14 7 2 3 4 1 7-1-1 4-9 1-6-4-2-3v-9l4-5z" fill="#0B0304"/>
<path transform="translate(465,392)" d="m0 0 6 2 4 6-1 4-4 7-9-1-4-4-1-2v-7l3-3z" fill="#6D0315"/>
<path transform="translate(401,222)" d="m0 0 2 1-2 4-10 6-15 5-14 2-4 21-3 19-3 1 1-13 5-31 1-1 17-2 14-5z" fill="#180507"/>
<path transform="translate(464,443)" d="m0 0 6 1 4 5 1 5-5 5-6 2-7-3v-10l3-1v-2z" fill="#6D0315"/>
<path transform="translate(514,444)" d="m0 0h5l5 4v10h-2v2l-10 1-5-5 1-9 2-2z" fill="#6D0315"/>
<path transform="translate(493,221)" d="m0 0 4 2 3 5-1 6-4 4h-9l-4-5v-7l3-3h2l6-1z" fill="#540C16"/>
<path transform="translate(519,218)" d="m0 0 4 1 4 4v8l-4 4-6 1-3-1-3-4v-8l2-3-2-1z" fill="#560B16"/>
<path transform="translate(535,378)" d="m0 0 6 1 5 5-1 6-2 4-3 1h-8l-3-2-1-9 3-1 1-3z" fill="#6D0315"/>
<path transform="translate(487,447)" d="m0 0h8l3 3 1 8-3 6h-8l-5-5-1-5 4-6z" fill="#6D0315"/>
<path transform="translate(535,430)" d="m0 0h6v2l5 1v5l1 2-3 5-7 2-4-1-3-3v-10z" fill="#6D0315"/>
<path transform="translate(444,378)" d="m0 0 4 1 5 5v6l-5 6h-8l-2-2-2-6 1-5 4-4z" fill="#6C0315"/>
<path transform="translate(464,218)" d="m0 0 5 3 2 4-1 7-5 4-7-1-4-5v-6l1-2h3l1-2z" fill="#580D17"/>
<path transform="translate(512,360)" d="m0 0h6l5 3 2 5-1 6-4 3h-8l-3-4v-11z" fill="#6D0315"/>
<path transform="translate(850,675)" d="m0 0h3v2h2l1 2 3 1v3h2v3h-2v3h-3v3h-3l-1 3h-2v-3h-3v-3h-3v-3h-3v-3h3v-3h3v-3h3z" fill="#682D35"/>
<path transform="translate(464,360)" d="m0 0 5 1 3 3 1 4-2 8-2 1h-8l-3-3-1-2v-7l1-2z" fill="#6D0315"/>
<path transform="translate(850,741)" d="m0 0h3v2h2l4 4v2h2v3h-2v3h-3v3h-3l-1 3h-2v-3h-3v-3h-3v-3h-3v-3h3v-3h3l1-3h2z" fill="#7F464E"/>
<path transform="translate(852,476)" d="m0 0h2l4 5 4 3v3l-3 1-1 3h-3l1 3h-3v2h-3v-2h-3v-3h-3v-3h-3v-2h2v-2h2l1-2h3v-3h3z" fill="#783841"/>
<path transform="translate(850,807)" d="m0 0h3v3l5 2 1 3h2v3h-2v3l-3 2-3 1v3h-3v-3h-3v-3h-3v-3h-3v-3h3v-3h3v-2h3z" fill="#7D464E"/>
<path transform="translate(441,430)" d="m0 0 7 1 3 3 1 6-1 3-3 3h-8l-4-3v-11z" fill="#6D0315"/>
<path transform="translate(93,476)" d="m0 0h2v3h3v3h3v2l3 1v3h-3v3h-3v3h-2v2h-3v-2h-3v-3h-3v-3h-3v-3h3v-3l3-3h3z" fill="#703039"/>
<path transform="translate(851,608)" d="m0 0 2 1v2h2l4 4v2h2v3h-2v3h-3v-3h-3v3l3 1v2h-3l-1 3-2-1v-2h-3v-3h-3v-3h-3v-3h3v-3h3v-3h3z" fill="#8A585F"/>
<path transform="translate(852,146)" d="m0 0 5 2v3h3v3h3v3h-3v3h-3v3h-2l-1 3h-2v-3h-3v-3h-3v-3h-3v-3h3v-3h3v-3h3z" fill="#703039"/>
<path transform="translate(93,542)" d="m0 0h2v3h3v3h3v3h3v3h-3v3h-3v3h-2v2h-3v-2h-3v-3h-3v-3h-3v-3h3v-3h3v-3h3z" fill="#712E38"/>
<path transform="translate(93,146)" d="m0 0h2v2h3v3h3v3h3v3h-3v3h-3v3h-2l-1 3h-2v-3h-3v-3h-3v-3h-3v-3h3v-3h3v-3h3z" fill="#804850"/>
<path transform="translate(851,542)" d="m0 0 2 1v2h2l1 2 3 1v3h2v3h-2l-1 3h-2v-3h-3l2 3v3h-2v2h-3v-2h-3v-3h-3v-3h-3v-3h3v-3h3v-3h3z" fill="#8B5B62"/>
<path transform="translate(93,609)" d="m0 0h2v2h3v3h3v3h3v3h-3v3h-3v3h-2v2h-3v-2h-3v-3h-3v-3h-3v-3h3v-3h3v-3h3z" fill="#6C2A33"/>
<path transform="translate(93,807)" d="m0 0h2v2l3 1v2h3v3h3v3h-3v3h-3v3h-2l-1 3h-2v-3h-3v-3h-3v-3h-3v-3h3v-3h3v-2z" fill="#75323C"/>
<path transform="translate(93,741)" d="m0 0h2v2l3 1v2h3v3h3v3h-3v3h-3v3h-2l-1 3h-2v-3h-3v-3h-3v-3h-3v-3h3v-3h3v-2z" fill="#69202B"/>
<path transform="translate(93,212)" d="m0 0h2v2l3 1v2h3v3h3v3h-3v3h-3v3h-2l-1 3h-2v-3h-3v-3h-3v-3h-3v-3h3v-3h3v-2z" fill="#7E444C"/>
<path transform="translate(412,781)" d="m0 0 6 2 3 4-1 7-3 3-4 1-5-2-3-4 1-7 3-3z" fill="#D2D1D1"/>
<path transform="translate(93,344)" d="m0 0h2l3 3v2h3v3h3v3h-3v3h-3v3h-2l-1 3h-2v-3h-3v-3h-3v-3h-3v-3h3v-2l5-4z" fill="#905D64"/>
<path transform="translate(99,854)" d="m0 0h2v3h3v3h3v3h3v15h-3v-3h-3v-3h-3l-2-5h-3v-9z" fill="#7C2736"/>
<path transform="translate(107,305)" d="m0 0h16v3h-3v3h-3l-1 3h-2v2l-3 3-7-1-5-2v-2h2l1-4 2 1v-3h3z" fill="#7B2534"/>
<path transform="translate(844,722)" d="m0 0h6v13h-3v3h-3l-1 3-5 5h-2v-12l3-3h2v-6h3z" fill="#5E0D18"/>
<path transform="translate(99,788)" d="m0 0h2v3h3v3h3v3h3v15h-3v-3h-3v-3h-3l-2-4-3-1v-8z" fill="#7D2836"/>
<path transform="translate(93,410)" d="m0 0h2v3h3v3h3v2h3v3h-3v3h-3v3h-2l-1 3h-2v-3h-3v-3h-3v-3h-3v-3h3v-2h3v-3h3z" fill="#8F5C64"/>
<path transform="translate(86,389)" d="m0 0 5 2 2 2v11h-3l-3 6h-3v3h-3l-1 3-2-1v-12h3v-3h3v-3h3l1-3 2 1-1-3-4-2z" fill="#6A0415"/>
<path transform="translate(77,190)" d="m0 0h13v3h-3v3h-3v3h-3v3h-3v3h-12v-3h2v-3h3v-3h3v-3h3z" fill="#6A0415"/>
<path transform="translate(437,151)" d="m0 0m-2 1 2 1-3 5-1 5 3 5 11 5 17 4-4 1v2l-14-3-12-6-1 10-2 4h-2l1-17-1-9z" fill="#140406"/>
<path transform="translate(529,343)" d="m0 0h8l3 4 1 7h-2l-1 4-2 1h-7l-4-7 2-6z" fill="#6D0315"/>
<path transform="translate(852,278)" d="m0 0h2l3 3v2h3v3h3v3h-3v3h-2l-3-3v3h2v3h-2l-1 3h-2v-3h-3v-3h-3v-3h-3v-3h3v-3h3v-2h3z" fill="#612A31"/>
<path transform="translate(77,124)" d="m0 0h13v3h-3v3h-3v3h-3v3h-3l-1 3h-11v-3h2v-3h3v-3h3v-3h3z" fill="#6B0315"/>
<path transform="translate(107,94)" d="m0 0h3v13h-3v3h-3l-1 3-4 2 1 3 6 1v2h-7l-3-3v-12l3-3h2v-3h3v-3h3z" fill="#690515"/>
<path transform="translate(77,653)" d="m0 0h13v3h-3v3h-3v3h-3v3h-3v2l-2 1h-10v-3h2v-3h3v-3h3v-3h3z" fill="#6C0315"/>
<path transform="translate(99,454)" d="m0 0h12l1 3 2 1v2h3v3h3v3h3v3h-13v-3h-3v-3h-3v-3h-3v-3h-2z" fill="#6A0415"/>
<path transform="translate(852,344)" d="m0 0 3 1v2h2l3 3v2h3v3h-3v3l-3-1v-2h-2v3h2v3h-2v3h-3v-3h-3v-3h-3v-3h-3v-3h3v-2l3-3h3z" fill="#784048"/>
<path transform="translate(99,190)" d="m0 0h12v3h3v3h3v3h3v3h3l-1 3h-11l-1-3h-3v-3h-3v-3h-3v-3h-2z" fill="#6B0315"/>
<path transform="translate(442,778)" d="m0 0 4 1v14l1 3h6l1-2 1-16h4v22h-6l-1 1-7-1-3-4z" fill="#0B0304"/>
<path transform="translate(858,124)" d="m0 0h12v3h3v3h3v3h3v3h3l-1 3h-12v-3h-3v-3h-2v-3h-4v-3h-2z" fill="#6A0415"/>
<path transform="translate(856,785)" d="m0 0h13v3h2v3h3v3h3v3h3v3h-13v-2l-3-2 1-2h-3v-3h-3v-3h-3z" fill="#6A0415"/>
<path transform="translate(849,458)" d="m0 0h3v12h-3l-1 3-2 3h-3v3h-3v3h-2l-1-2v-11h3l1-3h2l1-3h2l1-3z" fill="#6C0315"/>
<path transform="translate(78,623)" d="m0 0h3v3h3v3h3l4 5 2 1v11l-3 1v-3h-3v-3h-3l-3-3v-2h-3z" fill="#5E0C18"/>
<path transform="translate(838,424)" d="m0 0h2v3h3v3h3l2 3 1 3h3v12h-3v-3h-3v-2h-3v-3l-3-1v-2l-3-1v-10z" fill="#6A0415"/>
<path transform="translate(838,358)" d="m0 0h2v3h3v3h3v3h3v3h3v12h-3v-3h-3v-2h-3v-3l-3-1v-2l-3-1v-9z" fill="#6A0415"/>
<path transform="translate(551,360)" d="m0 0 6 2 2 1v8l-5 5-9-3-1-1 1-9z" fill="#6D0315"/>
<path transform="translate(852,212)" d="m0 0 5 2v2l3 1v3h3v3h-3v3l-3-1-2-2v-3h-3v3l3 1v2h2v3h-2l-1 3h-2v-3h-3v-3h-3v-3h-3v-3h3v-3h3v-2z" fill="#73333C"/>
<path transform="translate(849,127)" d="m0 0h3v13h-3v3h-3l-1 3-2-1v3h-3v3l-3-1v-11h3l1-3h2v-3h3v-3h2z" fill="#6A0415"/>
<path transform="translate(90,458)" d="m0 0 3 1v10l-3 1-1 3-2 3h-3v3h-3l-1 3-2-1v-11l3-1v-3h3v-3h3v-3h2z" fill="#6B0315"/>
<path transform="translate(837,454)" d="m0 0h11l1 3h-3v3h-3v3h-3v3h-3v3h-12v-3h3v-3l5-5 3-1z" fill="#690515"/>
<path transform="translate(849,392)" d="m0 0h3v12h-3l-1 3-2 3h-3v3h-3v2h-2l-1-2v-9l3-1 1-3h2v-3h3v-3h2z" fill="#6B0315"/>
<path transform="translate(110,371)" d="m0 0h13v3h-3v3h-3v3h-3v2h-3v3h-12l-2-4 2-1 1 2 1-2h3v-3h3v-3h3z" fill="#6B0315"/>
<path transform="translate(849,193)" d="m0 0 3 1v12h-3l-1 3-5 5h-3v3h-2l-1-2v-10h3v-3h3v-3h3v-3h2z" fill="#6A0415"/>
<path transform="translate(90,854)" d="m0 0h2l1 2v10l-5 4-2 3-5 5h-3v-12h3v-3h3v-3h3v-3h3z" fill="#6B0415"/>
<path transform="translate(78,94)" d="m0 0h3v3h3v3h3l2 3 1 3h3v11l-3 1v-3h-3l-3-3v-2l-3-1v-2l-3-1z" fill="#6A0415"/>
<path transform="translate(90,788)" d="m0 0 3 1v11l-3 1-1 2-3 4-2-1-1 4-2-1v3h-3v-12h3v-3h3v-3h3v-3h3z" fill="#6C0315"/>
<path transform="translate(78,160)" d="m0 0h3v3h3v3h3l2 3 1 3 3 1v10l-3 1v-3h-3l-3-3v-2l-3-1v-2l-3-1z" fill="#6A0415"/>
<path transform="translate(107,623)" d="m0 0h3v13h-3v3h-3v2h-3v3h-2v3h-3v-13h2v-2l3-3h3v-3h3z" fill="#690515"/>
<path transform="translate(110,768)" d="m0 0h13v3h-3v3h-3v2h-3v3h-3v3h-12v-3h2v-3h3v-2h3v-3h3z" fill="#690515"/>
<path transform="translate(90,590)" d="m0 0 3 1v11l-5 4-1 2h-3v3h-3v3l-3-1v-11l3-3h3v-3h3v-3h3z" fill="#6A0415"/>
<path transform="translate(90,524)" d="m0 0h2l1 3v9l-5 4-1 2h-3v3h-3v3h-3v-12l3-3h3v-3h3v-3h3z" fill="#690515"/>
<path transform="translate(856,653)" d="m0 0h13v2l2 1v3h3v3h3v3h3v3l-13-1-2-2v-3h-3v-3h-3v-3h-3z" fill="#6B0415"/>
<path transform="translate(834,587)" d="m0 0h13v3h-3v3h-3v3h-3l-2 6h-11l-2-1v-2l5-4 4-5h2z" fill="#690515"/>
<path transform="translate(78,557)" d="m0 0h3v3h3v3h3l2 3 4 3v10l-1 2h-2v-3h-3v-3h-3v-3h-3l-3-3z" fill="#6B0315"/>
<path transform="translate(855,457)" d="m0 0h3v3h2v3h3v3h3v3h3v13l-3-1v-2h-3v-3h-2v-3h-3v-3h-3z" fill="#6A0415"/>
<path transform="translate(110,437)" d="m0 0h13v3h-3v3h-3v3h-3v2l-3 3h-12v-2h2v-3h3v-3h3v-3h3z" fill="#6B0415"/>
<path transform="translate(852,410)" d="m0 0h2l4 5 2 1v2h3v3h-3v3h-2l-4-5h-2v2l3 1v2h2v3h-2v3h-3v-3h-3v-3h-3v-3h-3l1-3h2v-2h3v-3h3z" fill="#7D414A"/>
<path transform="translate(866,94)" d="m0 0h3v13h-3l-1 3h-2l-1 3-4 2v3h2v2l-5-2v-12l5-4 1-2h2v-3h3z" fill="#690415"/>
<path transform="translate(66,834)" d="m0 0h12v3h3v3h3l3 3v2h3v3h-13v-3h-3l-3-3v-2l-3-1v-2h-2z" fill="#6A0415"/>
<path transform="translate(66,768)" d="m0 0h12v3h3v3h3v2h3v3h3v3h-13v-3h-3v-3h-3v-2h-2l-3-3z" fill="#6A0415"/>
<path transform="translate(79,491)" d="m0 0h2v3h3v3h3l2 3 4 3v10l-1 2h-2v-3h-3v-3h-3v-3h-3l-3-3v-11z" fill="#6B0315"/>
<path transform="translate(98,324)" d="m0 0 1 4h2l1 3h2v3h3v3h3v12h-3v-2h-3l-2-3-1-3-3-1-2-2v-13z" fill="#6A0415"/>
<path transform="translate(66,239)" d="m0 0h12v3h3v3h3l3 3v2h3v3h-13v-3h-3v-2l-3-1v-2h-2l-3-3z" fill="#680516"/>
<path transform="translate(110,173)" d="m0 0h13v3h-3v3h-3v2h-3v3h-3v3h-12l-1-3h3v-2h3v-3h3v-3h3z" fill="#6B0315"/>
<path transform="translate(66,107)" d="m0 0h12v3h3v3h3v2l3 1v2h3v3h-13v-3h-3v-3h-3v-2l-3-1v-2h-2z" fill="#690515"/>
<path transform="translate(107,821)" d="m0 0h3v13h-3v3h-3l-1 3-4 2v3h-3v-12l3-1v-2h2v-3h3v-3h3z" fill="#690515"/>
<path transform="translate(869,437)" d="m0 0h13v3h-3v3h-3v3h-3v2l-3 3h-12v-2l5-5 3-1v-3h3z" fill="#6A0415"/>
<path transform="translate(66,437)" d="m0 0h12v3h3v3h3v3h3v3l3-1v3h-13v-3h-3v-2h-3v-3l-3-1-2-2z" fill="#6B0415"/>
<path transform="translate(66,371)" d="m0 0h12v3h3v3h3v3h3v3l3-1v3h-13v-3h-3v-2l-3-1v-2h-3v-3h-2z" fill="#6A0415"/>
<path transform="translate(869,239)" d="m0 0h13v3h-3v3h-3v2l-5 4-1 2h-12v-3l5-4 3-1v-3h3z" fill="#6A0415"/>
<path transform="translate(867,768)" d="m0 0h13v3h-3v3h-3v2l-3 3h-2v3h-13v-3h3v-3h3v-2l2-2 4-1z" fill="#6A0415"/>
<path transform="translate(98,721)" d="m0 0 3 1h-2v3h2l1 3h2v3h3v3h3v12h-3v-3h-3v-3h-3l-5-5v-13z" fill="#6B0415"/>
<path transform="translate(836,689)" d="m0 0 3 1 2 2v3h3v3h3v2l3 1v12h-3v-3h-3l-3-3v-2h-2v-3l-4-2z" fill="#5E0D18"/>
<path transform="translate(866,358)" d="m0 0h3v13h-3v3h-3v3h-3v2h-2v3h-3v-12h3v-3l3-3h2v-3h3z" fill="#6A0415"/>
<path transform="translate(448,343)" d="m0 0 5 2 3 4-1 6-3 3h-7l-4-2v-9l4-3z" fill="#6D0315"/>
<path transform="translate(866,292)" d="m0 0h3v13h-3v3h-3l-1 3h-2l-1 3-1 2h-3v-12l3-3h3v-3h2v-3h3z" fill="#6B0315"/>
<path transform="translate(66,173)" d="m0 0h12v3h3v3h3l3 3v2h3v3h-13v-3h-3v-3h-3v-2h-2l-3-3z" fill="#6B0415"/>
<path transform="translate(847,788)" d="m0 0h3v13h-3v3h-3l-1 3-4 2-1 3h-2v-12h3v-3h2v-3h3v-3h3z" fill="#6B0315"/>
<path transform="translate(110,504)" d="m0 0h13v2h-3v3h-3v3h-3v3h-3v3h-12v-3h2v-3h3v-2h3v-3z" fill="#6A0415"/>
<path transform="translate(853,722)" d="m0 0h3v3l3 1v2l3 1v2h2l3 3v12l-3-1-4-4-1-3-3-1v-2h-3z" fill="#6B0415"/>
<path transform="translate(856,391)" d="m0 0 2 1v2h2v3h3v3h3v3h3v12h-3l-3-3v-2h-2v-3h-3v-3h-3v-12z" fill="#6A0415"/>
<path transform="translate(855,325)" d="m0 0h3v3h2v3h3v3h3v3h3v12h-3l-5-5v-3h-3v-3h-3z" fill="#6B0415"/>
<path transform="translate(855,259)" d="m0 0h3v3h2v3h3v3h3v3h3v12h-3l-5-5v-3h-3v-3h-3z" fill="#6B0415"/>
<path transform="translate(825,173)" d="m0 0h12v3h3v3h3v2h3v3h3v3h-13v-3h-2l-4-4-2-1v-3h-3z" fill="#6A0415"/>
<path transform="translate(869,173)" d="m0 0h13v3h-3v3h-3v2l-3 3h-3v3h-12v-3h3v-2l3-3h2v-3h3z" fill="#6A0415"/>
<path transform="translate(825,107)" d="m0 0h12v3h3v3h3v2h3v3h3v3h-13v-3h-2l-4-4-2-1v-3h-3z" fill="#690515"/>
<path transform="translate(847,854)" d="m0 0h3v13h-3v3h-3l-1 3-5 5h-2v-12h3v-3h2l1-3 2-3h3z" fill="#6A0415"/>
<path transform="translate(823,834)" d="m0 0h12v3h3v3h3v2h3v3h3v3h-13v-3h-2l-3-3v-2h-3v-3h-3z" fill="#690515"/>
<path transform="translate(868,702)" d="m0 0h12l-1 3h-2v3h-3v2h-3v3l-2 2v1h-13v-3h3v-3h3v-2l2-2z" fill="#680515"/>
<path transform="translate(847,656)" d="m0 0h3v13h-3l-1 3-8 8h-2v-12l3-3h2v-3h3v-3h3z" fill="#600B18"/>
<path transform="translate(853,656)" d="m0 0h3v3l3 1v2h2l4 5 2 1v12h-2l-5-5-1-3h-3v-3h-3z" fill="#6B0315"/>
<path transform="translate(853,590)" d="m0 0h3v3l3 1v2l3 1v2h2l3 3v12h-2l-5-5-1-3-3-1v-2h-3z" fill="#6A0415"/>
<path transform="translate(104,587)" d="m0 0h7v3h3v3h3v3h3v3h3l-1 3-12-1v-2l-3-1v-2l-3-1v-2h-3v-5z" fill="#6A0415"/>
<path transform="translate(835,569)" d="m0 0 1 3 5 4v2h3v3h3v3h-13v-3h-2l-4-5-5-4v-2z" fill="#6A0415"/>
<path transform="translate(96,524)" d="m0 0h3v3h2l1 3h2v3h3l3 3v12h-3v-3h-3v-3h-3l-2-5h-3z" fill="#690515"/>
<path transform="translate(825,371)" d="m0 0h12v3h3v3h3v3h3l3 3v2h-13v-3l-3-1-3-2-2-2v-3h-3z" fill="#690515"/>
<path transform="translate(427,360)" d="m0 0h5l5 4 1 3-3 7-7 1-4-2-1-2v-7z" fill="#6D0315"/>
<path transform="translate(855,193)" d="m0 0h3v3h2v3h3v3h3v3h3v12h-3v-3h-3l-2-2v-3h-3v-3h-3z" fill="#6B0415"/>
<path transform="translate(853,854)" d="m0 0h3v3l3 1v2l3 1v2h2v3h3v12h-2l-5-5-1-3-3-1v-2h-3z" fill="#6A0415"/>
<path transform="translate(867,834)" d="m0 0h13v3h-3v3h-3v2l-3 3h-2l-1 3h-12v-3h3l1-3h2v-2h3v-3h3z" fill="#690515"/>
<path transform="translate(836,755)" d="m0 0h2v3h3l2 3 1 3h3v2l3 1v12h-3v-3h-3l-5-6v-2h-3z" fill="#6A0415"/>
<path transform="translate(90,722)" d="m0 0 3 1v11l-3 1-1 2-3 4-2-1v3h-3v3h-3v-12h3v-3h3v-3h3l1-2 1 3z" fill="#610A17"/>
<path transform="translate(856,587)" d="m0 0h13v2l2 1v3h3v3h3v3h3l-1 3-12-1-2-5h-3v-3h-3v-3h-3z" fill="#6A0415"/>
<path transform="translate(864,557)" d="m0 0h3v12l-3 1v2h-2l-1 3h-2l-1 3h-2v3h-3v-13h3v-2l5-4 1-2h3z" fill="#6A0415"/>
<path transform="translate(416,295)" d="m0 0 4 2-1 8 1 3 4 2-1 9 3 3 4 1-2 5v11l-8-2 3-5v-9l-3-3-4-2 1-3v-7l-3-3z" fill="#D2D1D1"/>
<path transform="translate(98,126)" d="m0 0 1 4h2l1 3h2v3h3v3h3v12h-3v-3h-3v-3h-3l-2-5h-3v-13z" fill="#690515"/>
<path transform="translate(596,510)" d="m0 0 3 1-2 6-9 17-7 11-9 12-5 3-2 1 2-4 9-11 12-20z" fill="#170407"/>
<path transform="translate(825,437)" d="m0 0h12v3h3v3h3v3h3v3h3v2h-13v-3l-3-1-5-4v-3h-3z" fill="#6A0415"/>
<path transform="translate(856,521)" d="m0 0h13v3h2v3h3v3h3l3 3v2h-13v-2l-5-4v-2h-3v-3h-3z" fill="#6A0415"/>
<path transform="translate(847,524)" d="m0 0h3v12l-3 1v2h-3l-1 3-2 3h-3v3h-2v-12l3-1v-2h2v-3h3v-3h3z" fill="#690515"/>
<path transform="translate(868,570)" d="m0 0h12v2h-3v3l-3 3h-3v3l-2 1v2h-13v-3h3v-3h3v-2l5-4z" fill="#6A0415"/>
<path transform="translate(110,570)" d="m0 0h13v2h-3v3h-3v3h-3v3h-3v3h-8l-2-2v-4h3v-2l3-3h3z" fill="#6B0415"/>
<path transform="translate(96,259)" d="m0 0 3 4h1l4 2v3h3v3h3v12h-3v-3h-3l-3-3v-2l-3-1v-2h-2z" fill="#6B0315"/>
<path transform="translate(98,394)" d="m0 0h3l1 3h2v3h3v3h3v12h-3v-2h-3v-3l-3-1-2-5h-3v-8h2z" fill="#6A0415"/>
<path transform="translate(79,689)" d="m0 0h2v3h3v3h3l4 5 2 1v12h-3v-3h-3l-3-3v-2h-3l2-8h-3l-2 4v-11z" fill="#5E0C18"/>
<path transform="translate(448,648)" d="m0 0 6 1 3 20 5 13-1 2-6-8-5-12-3-13z" fill="#070203"/>
<path transform="translate(465,318)" d="m0 0 9 2 1 4-1 7-7 2-6-3 1-9z" fill="#6D0315"/>
<path transform="translate(835,503)" d="m0 0 3 4v2l3 1v2h3v4l-5 2h-5v-3h-2l-4-5-5-4v-2z" fill="#6B0415"/>
<path transform="translate(108,654)" d="m0 0h3v2h3v3h3v3h3v3h3v3h-11l-2-1v-2h-3v-3h-3l-1-6z" fill="#6B0315"/>
<path transform="translate(110,702)" d="m0 0h13l-1 3h-2l-1 3h-2v2h-3v3h-3v3h-6l-2-4 1-4h3v-3h3z" fill="#6B0415"/>
<path transform="translate(867,504)" d="m0 0h13v2h-3v3l-3 3h-3v3l-2 2v1h-5l-5-3v-3h3l1-3h2v-3z" fill="#6A0415"/>
<path transform="translate(79,292)" d="m0 0h2v3h3v3h3l2 3 1 3h3v12h-3v-3l-3 1-1-3h-2v-3h-3l1-4h2l-3-7-3 4v-8z" fill="#5E0D18"/>
<path transform="translate(528,212)" d="m0 0 2 1-4 4-7 2-13 2-12 1-4 1-5 2 1-4h-3v-2l16-1 26-5z" fill="#130406"/>
<path transform="translate(512,318)" d="m0 0 4 1 4 2-1 9-4 3-5-1-4-4 1-7 4-1z" fill="#6D0315"/>
<path transform="translate(838,292)" d="m0 0h2v3h3v3h3v3h3v3h3v12h-3v-3h-3v-2h-3v-3h-2l1-10-2-1-1-1-1 3z" fill="#5D0D18"/>
<path transform="translate(834,325)" d="m0 0h5v2l2 1 2 3v3h-3v3h-15v-3l3-3h2l1-3h3z" fill="#781E2D"/>
<path transform="translate(93,278)" d="m0 0h2l3 3v2h3v3h3v3h-3v3l-3-1-5-5-1 3h-2v3h-3v-3h-3v-3h3v-3h3v-2z" fill="#62252D"/>
<path transform="translate(87,329)" d="m0 0 2 2-1 10-1 3h-3v3h-3l-1 3-2-1v-12h3v-3h3v-3h3z" fill="#680516"/>
<path transform="translate(825,239)" d="m0 0h12v3h3v5l1 2-1 2 5 1v1h-9v-3h-2v-2l-6-3v-3h-3z" fill="#6A0415"/>
<path transform="translate(417,341)" d="m0 0h6l3 2 1 7-4 5-7-2-1-1 1-10z" fill="#6D0315"/>
<path transform="translate(107,226)" d="m0 0h3l1 17h-2v4l-8 1v2h-2v-3h2l1-3 2 1v-3h3v-4l-4-1v-2h-2v-3h3v-3h3z" fill="#680516"/>
<path transform="translate(433,326)" d="m0 0 7 1 2 2 1 7-5 3h-5l-3-4v-5z" fill="#6C0315"/>
<path transform="translate(84,267)" d="m0 0h2l1 3h3l1-2 2 4h-3l-1 3-2 3h-3l-1 3-2 2h-3v-12h3v-3z" fill="#600B18"/>
<path transform="translate(665,770)" d="m0 0h2v8h5v3h-5l1 17h3v3l-6-1-1-1-1-17-1-4h2v-7z" fill="#070203"/>
<path transform="translate(478,770)" d="m0 0h3v8h5v3h-5l1 17h3v3l-6-1-1-1v-18h-2v-3h2z" fill="#060203"/>
<path transform="translate(429,417)" d="m0 0h3l3 3v5l-3 4-10-2-1-5 2-3z" fill="#6D0315"/>
<path transform="translate(541,243)" d="m0 0 1 3-10 13-10 10-9 6v-3l5-5 12-11 8-11z" fill="#1A0508"/>
<path transform="translate(877,644)" d="m0 0h3v3h3v3h3v3h-3v3h-3v3h-3v-3h-3v-3h-3v-3h3v-3h3z" fill="#641C26"/>
<path transform="translate(542,327)" d="m0 0 8 1 1 7-4 3-8-1-1-7 1-2z" fill="#6D0315"/>
<path transform="translate(877,578)" d="m0 0h3v3h3v3h3v3h-3v3h-3v3h-3v-3h-3v-3l-3-1v-2h3v-3h3z" fill="#5F1C25"/>
<path transform="translate(120,512)" d="m0 0h3v3h3v3l3 1v2h-3v3h-3v3h-3v-3h-3v-3h-3v-3h3v-3h3z" fill="#641C26"/>
<path transform="translate(877,710)" d="m0 0h3v3h3v3h3v3h-3v3h-3v3h-3v-3h-3v-3l-3-1v-2h3l1-3h2z" fill="#631C26"/>
<path transform="translate(120,644)" d="m0 0h3v3h3v3l3 1-1 2h-2v3h-3v3h-3v-3h-3v-3h-3v-3h3v-3h3z" fill="#601C25"/>
<path transform="translate(120,578)" d="m0 0h3v3h3v3l3 1-1 2h-2v3h-3v3h-3v-3h-3v-3h-3v-3h3v-3h3z" fill="#5E1C25"/>
<path transform="translate(877,512)" d="m0 0h3v3h3v3h3v3h-3v3h-3v3l-3-1v-2h-3v-3h-3l1-3h2v-3h3z" fill="#661C26"/>
<path transform="translate(352,370)" d="m0 0h1l2 24 2 20-3 1-2-12-2-21v-7h1z" fill="#1C0508"/>
<path transform="translate(530,306)" d="m0 0h2v2l2 1v6l-6 4-5-1-2-7 2-3h7z" fill="#6D0315"/>
<path transform="translate(120,710)" d="m0 0h3v3l3 1v2l3 1-1 2h-2v3h-3v3h-3v-3h-3v-3h-3v-3h3v-3h3z" fill="#631C26"/>
<path transform="translate(878,776)" d="m0 0 2 1v2h3v3h3v3h-3v3h-3v3h-3v-3h-3v-3l-3-1v-2h3l1-3h2z" fill="#661D27"/>
<path transform="translate(877,843)" d="m0 0h3v2h3v3h3v3h-3v3h-3v3h-3v-3h-3v-3l-3-1v-2h3l1-3h2z" fill="#631C26"/>
<path transform="translate(618,778)" d="m0 0h2l1 2 5-2v4l-4 2-1 2-1 14-4 1v-22z" fill="#060203"/>
<path transform="translate(120,776)" d="m0 0 3 1v2l3 1v2l3 1-1 2h-2v3h-3v3h-3v-3h-3v-3h-3v-3h3v-3h3z" fill="#631C26"/>
<path transform="translate(557,342)" d="m0 0 7 1 2 2v6l-3 3-6-1-3-2 1-7z" fill="#6C0315"/>
<path transform="translate(453,306)" d="m0 0 5 3 1 6-2 4-7-1-3-4 2-6z" fill="#6D0315"/>
<path transform="translate(843,266)" d="m0 0 2 1v3l7-1v3h-3v3h-3v3h-3l-1 3-4 2v-10l2-5h3z" fill="#5F0C18"/>
<path transform="translate(879,248)" d="m0 0h3l1 2h2v3l3 1v2h-3v3h-3v3h-3v-3h-3v-3h-3v-3h3v-3h3z" fill="#651C26"/>
<path transform="translate(120,182)" d="m0 0h3l3 3v2l3 1v2h-3v3h-3v3h-3v-3h-3v-3h-3v-3h3v-3h3z" fill="#621C26"/>
<path transform="translate(879,116)" d="m0 0h3l1 2h2v3l3 1v2h-3v3h-3v3h-3v-3h-3v-3h-3v-3h3l1-3h2z" fill="#631C26"/>
<path transform="translate(120,116)" d="m0 0h3v2l3 1v2l3 1v2h-3v3h-3v3h-3v-3h-3v-3h-3v-3h3l1-3h2z" fill="#621D26"/>
<path transform="translate(120,843)" d="m0 0h3l3 3v2l3 1-1 2h-2v3h-3v3h-3v-3h-3v-3h-3v-3h3v-3h3z" fill="#661D27"/>
<path transform="translate(836,623)" d="m0 0h2v3h3l2 3 4 3v2l3 1-1 3-7-1v2l-4-2-2-2z" fill="#680415"/>
<path transform="translate(823,578)" d="m0 0h3v3l3 1v2h2v3h-3v3h-2v3h-3v-3h-3v-3h-3v-3h3v-3h3z" fill="#601823"/>
<path transform="translate(823,512)" d="m0 0h3v3l3 1v2h2v3h-3v3h-2v3h-3v-3h-3v-3h-3v-3h3v-3h3z" fill="#631722"/>
<path transform="translate(428,339)" d="m0 0 11 4-2 6 1 7 2 5-7-4-5-1 2-5v-7z" fill="#D2D1D1"/>
<path transform="translate(879,182)" d="m0 0h3l3 3v2l3 1v2h-3v3h-3v3h-3v-3h-3v-3h-3v-3h3l1-3h2z" fill="#5F1C26"/>
<path transform="translate(823,644)" d="m0 0 3 1v2l3 1v2h2v3l-3 3h-2v3h-3v-3h-3v-3h-3v-3h3v-3h3z" fill="#5E1721"/>
<path transform="translate(77,322)" d="m0 0h12l4 5v11h-3l-1 3v-15l-2-1v3h-3v3l-4-1 1-1-2-4-2 1z" fill="#5F0B18"/>
<path transform="translate(120,248)" d="m0 0h3l3 3v2l3 1v2h-3v3h-3v3h-3v-3h-3v-3h-3v-3h3v-2z" fill="#661B26"/>
<path transform="translate(823,776)" d="m0 0 3 1v2h2l3 3v3l-3 3h-2v3h-3v-3h-3v-3h-3v-3h3v-3h3z" fill="#611923"/>
<path transform="translate(65,578)" d="m0 0h3v3h3v3h3v3h-3v3h-3v3h-3v-3h-2v-3h-3v-3h3v-3h2z" fill="#611923"/>
<path transform="translate(552,417)" d="m0 0h5v2h2l1 6-5 4-7-1v-6l2-3h2z" fill="#6D0315"/>
<path transform="translate(823,843)" d="m0 0h3v2l3 1v2h2v3h-3v3h-2v3h-3v-3h-3v-3h-3v-3h3v-3h3z" fill="#641924"/>
<path transform="translate(823,710)" d="m0 0 3 1v2h2l3 3v3h-3v3h-2v3h-3v-3h-3v-3h-3v-3h3v-3h3z" fill="#601923"/>
<path transform="translate(66,710)" d="m0 0h2v3h3v3h3v3h-3v3h-3v3l-3-1v-2h-2l-3-3v-3h3v-3h2z" fill="#631B25"/>
<path transform="translate(879,380)" d="m0 0h3v3h3v2l3 1v2h-3v3h-3v3h-3v-3h-3v-3h-3v-3h3v-2h3z" fill="#661D27"/>
<path transform="translate(879,314)" d="m0 0h3l3 3v2l3 1v2h-3v3h-3v3h-3v-3h-3v-3h-3v-3h2l1-2h3z" fill="#621D27"/>
<path transform="translate(66,644)" d="m0 0h2v3h3v3h3v3h-3v3h-3v3l-3-1v-2h-2v-3h-3v-3h3v-3h2z" fill="#641924"/>
<path transform="translate(66,512)" d="m0 0h2v3h3v3h3v3h-3v3h-3v3l-3-1v-2h-2v-3h-3v-3h3v-3h2z" fill="#631B25"/>
<path transform="translate(120,380)" d="m0 0h3v3h3l3 3v2h-3v3h-3v3h-3v-3h-3v-3h-3v-3h2z" fill="#611B25"/>
<path transform="translate(825,182)" d="m0 0h3v2h2v3h3v3h-3v3h-2v3h-3l-3-3v-3h-3v-3h3v-3h3z" fill="#5E1620"/>
<path transform="translate(66,776)" d="m0 0 2 1v2h3v3h3v3h-3v3h-3v3l-3-1v-2h-2v-3h-3v-3h3v-3h2z" fill="#621924"/>
<path transform="translate(120,446)" d="m0 0h3v3h3l3 3v2h-3v3h-3v3h-3v-3h-3v-3h-3v-3h2l1-2h3z" fill="#641C26"/>
<path transform="translate(120,314)" d="m0 0h3l5 5v3h-2v3h-3v3h-3v-3h-3v-3h-3v-3h2l1-2h3z" fill="#621B25"/>
<path transform="translate(825,115)" d="m0 0 5 3v3h3v3h-3v3h-2v3h-3v-3h-3v-3h-3v-3h3v-3h3z" fill="#5D1721"/>
<path transform="translate(65,843)" d="m0 0h3v2h3v3h3v3h-3v3h-3v3l-3-1v-2h-2v-3h-3v-3h3v-3h2z" fill="#641722"/>
<path transform="translate(879,446)" d="m0 0h3v3h3l3 3v2h-3v3h-3v3h-3v-3h-3v-3h-3l1-3 2-2h3z" fill="#67202A"/>
<path transform="translate(65,248)" d="m0 0h3v2h3v3h3v3h-3v3h-3v3h-3v-3h-2v-3h-3v-3h3z" fill="#651B26"/>
<path transform="translate(89,235)" d="m0 0 1 3h3v12h-6v-2l-3-1v-2h-3v-3l4-1z" fill="#6A0515"/>
<path transform="translate(65,182)" d="m0 0h3v2h3v3h3v3h-3v3h-3v3l-3-1v-2h-2v-3h-3v-3h3v-3h2z" fill="#5F1923"/>
<path transform="translate(65,116)" d="m0 0h3v2h3v3h3v3h-3v3h-3v3l-3-1v-2h-2v-3h-3v-3h3v-3h2z" fill="#621B25"/>
<path transform="translate(850,873)" d="m0 0h3v3l5 2 1 3h2v2h-8v-2h-3v2h-9v-2h3l1-3h2v-2h3z" fill="#60222B"/>
<path transform="translate(825,314)" d="m0 0h3v3h2v2h3v3h-3v3h-2v3h-3l-3-3v-3h-3v-3h3v-2z" fill="#621722"/>
<path transform="translate(825,380)" d="m0 0h3v3h2v2h3v3h-3v3h-2v3h-3v-3h-3v-3h-3v-3h3v-2z" fill="#5F1721"/>
<path transform="translate(65,380)" d="m0 0h3l3 3v2h3v3h-3v3h-3v3l-3-1v-2h-2l-3-3v-3h3v-2h2z" fill="#611A24"/>
<path transform="translate(65,314)" d="m0 0h3l2 2 1 3 3 1v2h-3v3h-3v3l-3-1v-2h-2l-3-3v-3h3v-2h2z" fill="#661A25"/>
<path transform="translate(825,446)" d="m0 0h3v3h2v2l3 1v2h-3v3h-2v3h-3l-3-3v-3h-3l1-3h2v-2z" fill="#641823"/>
<path transform="translate(825,248)" d="m0 0h3v3h2v2h3v3h-3v3l-3 3h-2v-3h-3v-3h-3v-3h3v-2z" fill="#601822"/>
<path transform="translate(315,778)" d="m0 0 1 3 5-3h2l-1 4-4 4-2 14-3 1v-22z" fill="#040202"/>
<path transform="translate(65,446)" d="m0 0h3l3 3v3h3v2h-3v3h-3v3l-3-1-5-5v-3h3v-2h2z" fill="#651A25"/>
<path transform="translate(501,305)" d="m0 0 2 1 1 4-8 4-8 1-3-2 1-2h-3l1-4 9 2 7-1z" fill="#6D0315"/>
<path transform="translate(844,614)" d="m0 0h3v3h3v3h3v3l3 1v2h-3l-1 3-2-1v-2h-3v-3h-3v-3h-3v-3h3z" fill="#722F39"/>
<path transform="translate(844,548)" d="m0 0h3v3h3v3h3l2 3v3h-2v2h-3v-2h-3v-3h-3v-3h-3v-3h3z" fill="#73313A"/>
<path transform="translate(93,873)" d="m0 0h2l3 3v2l3 1v2h3v2h-8v-2h-3v-2h-3v2l3 1v1h-9v-2h3v-3h3v-2z" fill="#5E141F"/>
<path transform="translate(846,259)" d="m0 0h5l1 1v9l-5 2-2-1-1-3-4 1v-3h3v-3h3z" fill="#83434D"/>
<path transform="translate(561,402)" d="m0 0 6 1 2 2 1 5-4 2h-5l-3-5 2-4z" fill="#6D0315"/>
<path transform="translate(87,259)" d="m0 0 6 1v10h-3l-4 1v-4l-5 1v-3h3v-3h3z" fill="#7E2837"/>
<path transform="translate(80,719)" d="m0 0h10v12l-3-3h-5l-3-7z" fill="#5E0C18"/>
<path transform="translate(844,731)" d="m0 0 6 4h-3v3h-3l-1 3-5 5h-2v-9h2l1-2 2-2h3z" fill="#690515"/>
<path transform="translate(864,636)" d="m0 0h16v2l-2 1-2 3-2 2h-6l-1-4-3-2z" fill="#741B29"/>
<path transform="translate(727,781)" d="m0 0 4 1 2 2-1 6-7 1-2-2v-6z" fill="#D2D1D1"/>
<path transform="translate(852,410)" d="m0 0h2l4 5 2 1v2h3v3h-3v3h-2l-4-5h-2v-3h-3v-3h3z" fill="#702933"/>
<path transform="translate(417,402)" d="m0 0 4 1 2 2v5l-2 2h-5l-3-2v-7z" fill="#6D0315"/>
<path transform="translate(837,239)" d="m0 0h3l5 5 1 3h3v6l-7-1-2-1-1-5 1-4h-3z" fill="#6B0415"/>
<path transform="translate(93,410)" d="m0 0h2v3h3v3h3v2h3v3h-3v3h-3v-3h-2v-3h-3v-2h-3v-3h3z" fill="#6B232D"/>
<path transform="translate(424,202)" d="m0 0 4 2 7 4-8 8-4-9z" fill="#D2D1D1"/>
<path transform="translate(555,202)" d="m0 0 3 1v6l-4 7-4-5-3-3z" fill="#D2D1D1"/>
<path transform="translate(439,291)" d="m0 0 6 1 3 2-1 6-5 1-4-3z" fill="#6D0315"/>
<path transform="translate(536,291)" d="m0 0 5 1 2 1 1 5-4 3h-5l-1-1v-6z" fill="#6D0315"/>
<path transform="translate(104,639)" d="m0 0h3v3l-2 1v2h5l-2 4-2 1h-7v-6h2v-3h3z" fill="#8D4752"/>
<path transform="translate(543,169)" d="m0 0 2 1 1 2-11 5-14 3 3-4 14-4z" fill="#1D0508"/>
<path transform="translate(848,238)" d="m0 0h4v12h-3v-3h-3l-3-3v-3h2l1-2z" fill="#6A0415"/>
<path transform="translate(99,235)" d="m0 0h4l1 2 3 1v4h-3v3l-4 1-2-3-2 1v-6z" fill="#5F0C18"/>
<path transform="translate(844,636)" d="m0 0 6 2v9h-6v-6h-3l1-4z" fill="#771E2D"/>
<path transform="translate(692,788)" d="m0 0 5 1 2 4-2 4-4 1-4-4 1-4z" fill="#D2D1D1"/>
<path transform="translate(855,482)" d="m0 0h5l2 2v3l-3 1-1 3h-5v-3h-3v-2l4-2z" fill="#865058"/>
<path transform="translate(285,788)" d="m0 0 5 1 1 1-1 7-4 1-4-4 1-4z" fill="#D2D1D1"/>
<path transform="translate(836,689)" d="m0 0 3 1 2 2v3h2v6l-6 1-2-2z" fill="#6D0315"/>
<path transform="translate(834,653)" d="m0 0h13v6h-3v3h-7l2-5 2-2-7-1z" fill="#784048"/>
<path transform="translate(860,237)" d="m0 0h1v7h2v-2h3v3l-5 5h-6v-6l3-4 1 2z" fill="#6B0415"/>
<path transform="translate(644,778)" d="m0 0h1v23h-3v-22z" fill="#030202"/>
<path transform="translate(850,741)" d="m0 0h3v2h2l1 6h-3v3h-3v-3h-3v-5l3-1z" fill="#864D55"/>
<path transform="translate(850,675)" d="m0 0h3v2h2l1 6h-3v3h-3v-3h-3v-6h3z" fill="#A18387"/>
<path transform="translate(88,635)" d="m0 0 3 1 2-1v11l-3 1v-3h-3v-3h-3v-3h2l1-2z" fill="#6C0315"/>
<path transform="translate(631,365)" d="m0 0h1l-1 21-2 4h-2l2-22z" fill="#1A0508"/>
<path transform="translate(412,323)" d="m0 0 7 1 1 5-5 3-5-2 1-6z" fill="#6D0315"/>
<path transform="translate(836,322)" d="m0 0h13v3h-3v3h-3v3l-3-1-1-5h-3z" fill="#5E0C18"/>
<path transform="translate(858,633)" d="m0 0h1v8h3v-2h2v3h-2v2h-3v3h-6l1-7 3-1z" fill="#93545E"/>
<path transform="translate(98,632)" d="m0 0h3v12h-2v3h-3v-13h2z" fill="#670616"/>
<path transform="translate(353,280)" d="m0 0h2l-2 27-3-4 1-17z" fill="#130406"/>
<path transform="translate(411,258)" d="m0 0 3 1v6l1 3v5l1 4-2 4-2-1v-8l-2-4 1-4-1-5z" fill="#D2D1D1"/>
<path transform="translate(852,146)" d="m0 0 5 2 1 6h-3v3h-3v-3h-3v-6h3z" fill="#874F57"/>
<path transform="translate(566,323)" d="m0 0 4 2 1 3-1 3-6 1-3-2v-5z" fill="#6D0315"/>
<path transform="translate(865,623)" d="m0 0h2v13l-6-1-1-5 3-1 1-4z" fill="#6B0315"/>
<path transform="translate(840,334)" d="m0 0 2 4 1 5-1 4-4 2-1-2v-10h3z" fill="#6B0415"/>
<path transform="translate(344,574)" d="m0 0h5l-5 5-3 5v8l-2-2-1-4v-7l3-4z" fill="#0E0305"/>
<path transform="translate(96,304)" d="m0 0 4 1v3h1v6h-2v2l5 1 2 2h-7l-1-3h-2z" fill="#5A0C17"/>
<path transform="translate(383,571)" d="m0 0 3 3 2 10-2 4-8 3-3-1 7-4 2-4v-7z" fill="#170407"/>
<path transform="translate(858,235)" d="m0 0h4v2l3 1 1 4h-3v2l-6-2v2h-2v-6z" fill="#5C0D18"/>
<path transform="translate(850,807)" d="m0 0h3v3l3 1v4h-3v3h-3v-3h-3v-5h3z" fill="#86555C"/>
<path transform="translate(849,284)" d="m0 0h3v2h3v-2h5v2h3v3h-3v3h-2l-1-2-5-1-3-3z" fill="#84585E"/>
<path transform="translate(77,653)" d="m0 0h13v3h-3v3h-3v3h-3l-1 2 2-10h-5z" fill="#5B0D18"/>
<path transform="translate(628,592)" d="m0 0 8 6v3l-7 9-1-2 2-5-1-7z" fill="#0D0304"/>
<path transform="translate(858,454)" d="m0 0h12l-5 4-2 5h-3v-3h-2z" fill="#894852"/>
<path transform="translate(763,781)" d="m0 0 5 1 1 2-11 6h-2l1-5 3-3z" fill="#D2D1D1"/>
<path transform="translate(847,656)" d="m0 0h3v9l-2 2-4-1v-2l-3-1 3-1v-3h3z" fill="#610715"/>
<path transform="translate(99,653)" d="m0 0h12l-4 3h-4l1 6h-3v-3h-3l-1-3z" fill="#7F414A"/>
<path transform="translate(862,642)" d="m0 0 5 1v4h-2v2l-2 1h-7v-3h3v-3h3z" fill="#6A0515"/>
<path transform="translate(589,781)" d="m0 0 6 1-1 3-9 5h-2l1-5z" fill="#D2D1D1"/>
<path transform="translate(253,781)" d="m0 0 6 1-1 3-9 5h-2l1-5z" fill="#D2D1D1"/>
<path transform="translate(605,493)" d="m0 0 1 3-6 15h-3l1-6 5-10z" fill="#140406"/>
<path transform="translate(433,276)" d="m0 0 6 1 1 1v5l-4 1-4-1v-6z" fill="#6D0315"/>
<path transform="translate(836,242)" d="m0 0h4v5l1 2-1 2 5 1v1h-9v-3h-2l2-7z" fill="#5D0D18"/>
<path transform="translate(837,295)" d="m0 0 4 2 2 6-2 5h2v3h-3v-6l-3-1z" fill="#7E2534"/>
<path transform="translate(93,278)" d="m0 0 2 1-2 1zm-1 2m-2 1h2l-2 5h3l-1 3h-2v3h-3v-3h-3v-3h3v-3h3z" fill="#480B13"/>
<path transform="translate(78,734)" d="m0 0h2v2l4 2v5h-3v3h-3z" fill="#690515"/>
<path transform="translate(855,680)" d="m0 0h4v3h2v3h-2v3h-6v-6h3z" fill="#6E2E37"/>
<path transform="translate(843,629)" d="m0 0 4 3v2l3 1-1 3-7-1v2l-4-2 3-5z" fill="#5E0C18"/>
<path transform="translate(834,719)" d="m0 0h13v3h-3v3h-3v3l-2-1 1-6h-6z" fill="#5D0D18"/>
<path transform="translate(104,704)" d="m0 0 3 1v3h-3l1 8h-6l-1-3 1-3h2l1-4 1 1z" fill="#976F74"/>
<path transform="translate(853,656)" d="m0 0h3v3h2l-1 11-4-1z" fill="#5D0D18"/>
<path transform="translate(107,239)" d="m0 0h3l1 4h-2v4l-8 1v2h-2v-3h2l1-3 2 1v-3h3z" fill="#AC9296"/>
<path transform="translate(78,623)" d="m0 0h3v3h3l2 5-5 3-3-5z" fill="#6B0415"/>
<path transform="translate(499,218)" d="m0 0m-16 1h16l-1 2-4 2-7 1-2 1 1-4h-3z" fill="#070203"/>
<path transform="translate(96,614)" d="m0 0h5v3h3v3h-3v3h-3v-3h-2z" fill="#6B242F"/>
<path transform="translate(87,329)" d="m0 0 2 2-1 7-4-1v2l-4 1 1-6h3v-3h3z" fill="#5D0D18"/>
<path transform="translate(864,246)" d="m0 0h3l1 5-2 2h-8v-3z" fill="#6B0315"/>
<path transform="translate(844,812)" d="m0 0h5l-2 1v2h3v3h-3v3h-3v-3h-3v-3h3z" fill="#5A0C17"/>
<path transform="translate(98,482)" d="m0 0h3v2l3 1v3h-3v3h-3v-3l-3-1 1-3h2z" fill="#5A0A16"/>
<path transform="translate(87,482)" d="m0 0h3v2h3l-1 4h-2v3h-3v-3h-3v-3h3z" fill="#5F0C18"/>
<path transform="translate(568,388)" d="m0 0 5 2 2 1v4l-7 1-2-4z" fill="#6D0315"/>
<path transform="translate(544,277)" d="m0 0 5 1 1 5-5 2-3-1-1-4z" fill="#6D0315"/>
<path transform="translate(359,240)" d="m0 0 2 1-2 14-2 2h-2l2-13z" fill="#150406"/>
<path transform="translate(87,812)" d="m0 0h5l-2 1v2h3l-1 3h-2v3h-3v-3h-3v-3h3z" fill="#570B16"/>
<path transform="translate(353,398)" d="m0 0 3 4 1 12-3 1-2-16z" fill="#190508"/>
<path transform="translate(843,256)" d="m0 0h6v3h-3v3h-3v3l-4-1 2-5v-2z" fill="#4F0B15"/>
<path transform="translate(857,151)" d="m0 0h3v3h3v3h-3v3h-5v-6h3z" fill="#702A34"/>
<path transform="translate(844,746)" d="m0 0h3v3h3v3h-3v3h-3v-3h-3v-3h3z" fill="#5B0D18"/>
<path transform="translate(853,701)" d="m0 0 4 1v2h-2v5l3-1 1 5h-6z" fill="#74353D"/>
<path transform="translate(844,614)" d="m0 0h3v3h3v3h-3v3h-3v-3h-3v-3h3z" fill="#540C16"/>
<path transform="translate(844,548)" d="m0 0h3v3h3v3h-3v3h-3v-3h-3v-3h3z" fill="#570C17"/>
<path transform="translate(408,387)" d="m0 0 5 2 1 4h-2v2l-5-1-1-5z" fill="#6D0315"/>
<path transform="translate(80,296)" d="m0 0 3 2 1 6h-2l-1 4h-3v-7z" fill="#812C3A"/>
<path transform="translate(855,259)" d="m0 0h3v3h2v5l-2 1-1 4h-2z" fill="#5B0C17"/>
<path transform="translate(846,151)" d="m0 0h3v3h3v3h-3v3h-3v-3h-3v-3h3z" fill="#570C17"/>
<path transform="translate(853,812)" d="m0 0h5l1 3h2v3h-2v3h-3v-3h-3v-3h3v-2z" fill="#5C0C18"/>
<path transform="translate(853,722)" d="m0 0h3v3l2 1-2 4v5h-3z" fill="#5D0E19"/>
<path transform="translate(98,721)" d="m0 0 3 1h-2v3h2v3h-2v7h-3v-13z" fill="#5D0D18"/>
<path transform="translate(850,686)" d="m0 0h3v3h3v3h-3l-1 3h-2v-3h-3v-3h3z" fill="#29070B"/>
<path transform="translate(96,656)" d="m0 0 2 1v2h3l-1 7-2 2 3 1h-5z" fill="#5D0D18"/>
<path transform="translate(839,642)" d="m0 0h2v2h3v3h3v3h-5v-2h-5z" fill="#6B0315"/>
<path transform="translate(836,641)" d="m0 0h3l-2 7h5v2h-8v-3l-2-1 1-3z" fill="#5E0D18"/>
<path transform="translate(87,614)" d="m0 0h3v3h3l-1 3h-2v3h-3v-3h-3v-3h3z" fill="#540B16"/>
<path transform="translate(87,548)" d="m0 0h3v3h3l-1 3h-2v3h-3v-3h-3v-3h3z" fill="#520B15"/>
<path transform="translate(402,372)" d="m0 0 5 1 1 1v5l-4 1-3-3z" fill="#6D0315"/>
<path transform="translate(81,256)" d="m0 0h9v3h2l-1 2-4-2v3h-5z" fill="#580C17"/>
<path transform="translate(86,232)" d="m0 0 2 3v5l-4 3-3-1-1-5 5-3z" fill="#5E0D18"/>
<path transform="translate(87,746)" d="m0 0h3v3l3 1-1 2h-2v3h-3v-3h-3v-3h3z" fill="#590C17"/>
<path transform="translate(89,702)" d="m0 0 1 3h2l1-2v10h-3v-3h-2v-4h-2l1-2z" fill="#6A0415"/>
<path transform="translate(87,680)" d="m0 0h3v3l3 1-1 2h-2v3h-3v-3h-3v-3h3z" fill="#480A13"/>
<path transform="translate(98,548)" d="m0 0h3v3h3v3h-3v3h-3v-3l-3-1 1-2h2z" fill="#570B16"/>
<path transform="translate(608,480)" d="m0 0 3 1-3 10-2 3h-2l2-9z" fill="#1D0508"/>
<path transform="translate(866,242)" d="m0 0 4 1-1 4h3l1 3-3 3-4-1 1-4-4-3h3z" fill="#5D0D18"/>
<path transform="translate(845,232)" d="m0 0 1 3h3l-1 4-5 3h-2v-5l2-3h2z" fill="#5E0C18"/>
<path transform="translate(472,218)" d="m0 0h27v1h-16v2h-7z" fill="#2E070D"/>
<path transform="translate(98,680)" d="m0 0h3v3h3v3h-3v3h-3v-3l-3-1 3-3z" fill="#550C16"/>
<path transform="translate(852,355)" d="m0 0h3v3h2v3h-2v3h-3v-3h-3v-3h3z" fill="#550C16"/>
<path transform="translate(848,307)" d="m0 0 4 1v8h-3v-3h-3v-2l-3-1h3v-2z" fill="#660716"/>
<path transform="translate(864,834)" d="m0 0 4 1v2h-3v3h-3v2l-3 3h-3v-3l5-5h3z" fill="#D2D1D1"/>
<path transform="translate(856,746)" d="m0 0 3 1v2h2v3h-2v3h-3v-3h-3v-3h3z" fill="#570C17"/>
<path transform="translate(844,722)" d="m0 0h6v6h-9v-3h3z" fill="#965F68"/>
<path transform="translate(844,704)" d="m0 0h4v2h2v7h-3v-3h-3l-1-3z" fill="#620615"/>
<path transform="translate(856,614)" d="m0 0 3 1v2h2v3h-2v3h-3v-3h-3v-3h3z" fill="#5E0D18"/>
<path transform="translate(856,548)" d="m0 0h3v3h2v3h-2l-1 3h-2v-3h-3v-3h3z" fill="#5E0D18"/>
<path transform="translate(596,510)" d="m0 0 3 1-2 6-3 6-4 1 2-5z" fill="#1E0509"/>
<path transform="translate(621,438)" d="m0 0h1l-1 11-2 3h-2l1-9 1-4z" fill="#180407"/>
<path transform="translate(852,421)" d="m0 0 3 1v2h2v3h-2v3h-3v-3h-3v-3h3z" fill="#5C0C18"/>
<path transform="translate(855,325)" d="m0 0h3v3h2l-1 3-1 7h-3z" fill="#5A0C17"/>
<path transform="translate(852,289)" d="m0 0h3v3h2v3h-2l-1 3h-2v-3h-3v-3h3z" fill="#490B13"/>
<path transform="translate(858,256)" d="m0 0h12v3l-8 2-4-2z" fill="#5D0D18"/>
<path transform="translate(98,151)" d="m0 0h3v3h3v3h-3v3h-3v-3h-2v-3l2-1z" fill="#5B0D18"/>
<path transform="translate(852,91)" d="m0 0h3v3h2v3h-2l-1 3h-2v-3h-3v-3h3z" fill="#5B0C18"/>
<path transform="translate(93,686)" d="m0 0h2l3 3v3h-2l-1 3h-2v-3h-3v-3z" fill="#420911"/>
<path transform="translate(90,680)" d="m0 0 5 2 1-2h2l1 3-3 2 2 1v3l-3-1v-2h-2l-1 3h-2v-3l2-2-2-1z" fill="#D2D1D1"/>
<path transform="translate(836,569)" d="m0 0 3 1v2h2v3h3l3 3v3h-3v-3h-3v-2l-3-1v-2l-3-1z" fill="#D2D1D1"/>
<path transform="translate(850,488)" d="m0 0h3v3h2l1 3h-3v2h-3v-2h-3v-3h3z" fill="#5E0D18"/>
<path transform="translate(92,421)" d="m0 0h3l3 3v3h-2l-1 3h-2v-3h-3v-3h3z" fill="#5E0D18"/>
<path transform="translate(852,410)" d="m0 0h2l4 5-3 1-1 3h-2v-3h-3v-3h3z" fill="#5B0D18"/>
<path transform="translate(486,285)" d="m0 0h8l3 3-5 2-5-1z" fill="#6D0315"/>
<path transform="translate(568,258)" d="m0 0 4 2-1 7-1 4-2 1-2-6h2l-1-7z" fill="#D2D1D1"/>
<path transform="translate(852,223)" d="m0 0 3 1v2h2v3h-2l-1 3h-2v-3h-3v-3h3z" fill="#590C17"/>
<path transform="translate(99,217)" d="m0 0h2v3h3v3h-3v3h-3v-3l-3-1 1-2h3z" fill="#5D0D18"/>
<path transform="translate(93,818)" d="m0 0h2l3 3v3h-2l-1 3h-2v-3h-3v-3h3z" fill="#5C0C18"/>
<path transform="translate(99,812)" d="m0 0h2v3h3v3h-3v3h-3v-3h-2v-3h3z" fill="#560C17"/>
<path transform="translate(93,752)" d="m0 0h2l3 3v3h-2l-1 3h-2v-3h-3v-3h3z" fill="#5E0C18"/>
<path transform="translate(99,746)" d="m0 0h2v3h3v3h-3v3h-3v-3h-2v-3h3z" fill="#590C17"/>
<path transform="translate(93,675)" d="m0 0h2v2h3v3h-2l-1 3-4-2-1-4h3z" fill="#28060B"/>
<path transform="translate(852,476)" d="m0 0h2l4 5-3 1-1 3-2-1v-2h-3v-3h3z" fill="#590C17"/>
<path transform="translate(93,355)" d="m0 0h2l3 3v3h-2l-1 3h-2v-3h-3v-3h3z" fill="#5D0D18"/>
<path transform="translate(846,325)" d="m0 0h5l1 1v5l-2-1-2 3v-4h-2v2h-3v-3h3z" fill="#98646C"/>
<path transform="translate(93,289)" d="m0 0h2l3 3v3h-2l-1 3h-2v-3h-3v-3h3z" fill="#2C070C"/>
<path transform="translate(629,282)" d="m0 0h1l1 15h-2l-1 3-1-14z" fill="#1B0508"/>
<path transform="translate(93,223)" d="m0 0h2l3 3v3h-2l-1 3h-2v-3h-3v-3h3z" fill="#5E0D18"/>
<path transform="translate(93,157)" d="m0 0h2l3 3v3h-2l-1 3h-2v-3h-3v-3h3z" fill="#5A0B17"/>
<path transform="translate(75,645)" d="m0 0 5 2h10v3h-13v-3h-2z" fill="#5F0C18"/>
<path transform="translate(93,620)" d="m0 0h2l3 3v3h-2v2h-3v-2h-3v-3z" fill="#540C16"/>
<path transform="translate(93,554)" d="m0 0h2l3 3v3h-2v2h-3v-2h-3v-3z" fill="#5E0D18"/>
<path transform="translate(93,488)" d="m0 0h2l3 3v3h-2v2h-3v-2h-3v-3z" fill="#5E0D18"/>
<path transform="translate(87,350)" d="m0 0h3l2 5h-2v3h-3v-3h-3v-3h3z" fill="#5B0D18"/>
<path transform="translate(92,307)" d="m0 0h1v9h-3v-3l-3 1 1-6z" fill="#690515"/>
<path transform="translate(461,223)" d="m0 0h5l2 2-1 5-8-4v-2z" fill="#6C0315"/>
<path transform="translate(93,91)" d="m0 0h2l3 3v3l-3 3h-2v-3h-3v-3h3z" fill="#5B0D18"/>
<path transform="translate(78,834)" d="m0 0h3l4 5 2 1v2h3v3h-3v-2l-3-1v-2h-3v-3h-3z" fill="#D2D1D1"/>
<path transform="translate(80,694)" d="m0 0 1 2 3 1-1 4-2 4h-3l1-9z" fill="#853542"/>
<path transform="translate(99,350)" d="m0 0h2v2h3v3h-3v3h-3v-3h-2v-3h3z" fill="#5C0C17"/>
<path transform="translate(629,297)" d="m0 0h2l1 7v8h-3z" fill="#150406"/>
<path transform="translate(548,264)" d="m0 0h4l1 3-2 5h-3l-1-7z" fill="#6D0315"/>
<path transform="translate(96,259)" d="m0 0 3 4h1l1 4-3 5h-2z" fill="#5A0D18"/>
<path transform="translate(99,256)" d="m0 0h12v3l-9 1-3-1z" fill="#5D0E19"/>
<path transform="translate(837,239)" d="m0 0h3l5 5 1 3h3v3h-3v-2l-3-1v-2l-3-1v-2h-3z" fill="#D2D1D1"/>
<path transform="translate(858,217)" d="m0 0h2v3h3v3h-3v3l-3-1-2-2v-3h3z" fill="#4E0B15"/>
<path transform="translate(866,107)" d="m0 0h3v3h-3v3l-5 5h-3v-3h2l1-3z" fill="#D2D1D1"/>
<path transform="translate(97,700)" d="m0 0 3 1-2 6 3 1v2h-2v3h-3v-12z" fill="#570D17"/>
<path transform="translate(858,350)" d="m0 0h2v2h3v3h-3v3l-3-1v-2h-2v-3h3z" fill="#4F0B14"/>
<path transform="translate(87,259)" d="m0 0 6 1-1 7-3-3-5 1v-3h3z" fill="#946A6F"/>
<path transform="translate(856,653)" d="m0 0h13l-3 3h-10z" fill="#5E0D18"/>
<path transform="translate(397,649)" d="m0 0 5 1 2 3-1 2-6-1-2-3z" fill="#090303"/>
<path transform="translate(93,410)" d="m0 0h2v3h3v3l-2 2h-3v-2h-3v-3h3z" fill="#580D17"/>
<path transform="translate(550,313)" d="m0 0 5 1v5l-5 1-1-5z" fill="#6D0315"/>
<path transform="translate(852,278)" d="m0 0h2l3 3v2l3 1h-5v2h-3l-1-3-2-2h3z" fill="#520C16"/>
<path transform="translate(90,747)" d="m0 0h3v2h3v3h2v3l-3-1v-2h-2v3h-3v-3l2-2-2-1z" fill="#D2D1D1"/>
<path transform="translate(856,632)" d="m0 0h2v8h-3l-2 2v-8h3z" fill="#5D0D18"/>
<path transform="translate(855,304)" d="m0 0h2v7h3l-1 3-1 2h-3z" fill="#550C16"/>
<path transform="translate(574,374)" d="m0 0h5l1 4-5 2h-2v-5z" fill="#6C0315"/>
<path transform="translate(87,325)" d="m0 0 3 1v11l-2 1v-7h-4v-3h3z" fill="#A16D75"/>
<path transform="translate(98,324)" d="m0 0h1v14h-3v-13z" fill="#5A0D18"/>
<path transform="translate(429,313)" d="m0 0 3 1v6l-5-1-1-4z" fill="#6D0315"/>
<path transform="translate(569,308)" d="m0 0 4 1-1 5-4 1-1-4z" fill="#6D0315"/>
<path transform="translate(96,548)" d="m0 0h2v3l-2 2 2 1v3l-3-1v-2h-2l-1 3h-2v-3l5-4z" fill="#D2D1D1"/>
<path transform="translate(517,143)" d="m0 0 11 2-1 3-12-2z" fill="#26060B"/>
<path transform="translate(521,591)" d="m0 0 3 1 1 2-12 3 2-4z" fill="#1C0508"/>
<path transform="translate(359,236)" d="m0 0h8l-1 3-8 3v-5z" fill="#1C0508"/>
<path transform="translate(848,335)" d="m0 0h1v6h-3v3h-2v-7z" fill="#6A0415"/>
<path transform="translate(409,309)" d="m0 0 4 1 1 4-5 1-1-5z" fill="#6D0315"/>
<path transform="translate(863,176)" d="m0 0h3v3h-2l-1 3h-2v2h-3v-3h2l1-3z" fill="#D2D1D1"/>
<path transform="translate(101,175)" d="m0 0 2 3 2-3 2 1v3h-3v3h-3v2h-2v-3h2z" fill="#D2D1D1"/>
<path transform="translate(836,768)" d="m0 0h3l2 5 3 1v2h-3v-2h-3v-3h-3z" fill="#D2D1D1"/>
<path transform="translate(87,722)" d="m0 0h3v9l-3-3h-3v-3h3z" fill="#AF8990"/>
<path transform="translate(87,659)" d="m0 0h3v8l-4 1z" fill="#690515"/>
<path transform="translate(78,636)" d="m0 0h3l2 2 1 3h3v3h-3v-2h-3v-3h-3z" fill="#D2D1D1"/>
<path transform="translate(841,527)" d="m0 0h3v3h-3v3h-2v2l-3 1-1-3 4-4h2z" fill="#D2D1D1"/>
<path transform="translate(836,503)" d="m0 0 3 1v2h2v3h3v3h-3l-4-5-2-2z" fill="#D2D1D1"/>
<path transform="translate(79,292)" d="m0 0h2v3h3l1 4-4-2-3 4v-8z" fill="#5A0C17"/>
<path transform="translate(547,234)" d="m0 0 1 2-5 8h-3l2-5z" fill="#110405"/>
<path transform="translate(856,854)" d="m0 0h3v3h3v3h3l-1 3h-2l-4-5-2-1z" fill="#D2D1D1"/>
<path transform="translate(856,788)" d="m0 0h3v3h3v3h3l-1 3h-2l-4-5-2-1z" fill="#D2D1D1"/>
<path transform="translate(856,722)" d="m0 0h3v3h3v3h3l-1 3h-2l-4-5-2-1z" fill="#D2D1D1"/>
<path transform="translate(836,701)" d="m0 0 3 1v3h2v2l3 1v2h-3v-2l-3-1v-2h-3z" fill="#D2D1D1"/>
<path transform="translate(850,675)" d="m0 0h3l-1 7-5-2v-3h3z" fill="#440912"/>
<path transform="translate(107,639)" d="m0 0 3 1 2 5-5 1-3-3 3-1z" fill="#5D0D18"/>
<path transform="translate(102,633)" d="m0 0 5 2v4h-3v2h-2z" fill="#5E0C18"/>
<path transform="translate(98,632)" d="m0 0h3v8h-2l-1-2h-2v-4h2z" fill="#5F0C18"/>
<path transform="translate(856,512)" d="m0 0h3l1 3 4 2v1h-8z" fill="#824C54"/>
<path transform="translate(430,264)" d="m0 0 4 1-1 6-4-2-1-3z" fill="#6D0315"/>
<path transform="translate(97,259)" d="m0 0h4v3h3v3l-3 1-3-2z" fill="#A67880"/>
<path transform="translate(443,148)" d="m0 0 2 1 1 2-10 4 2-5z" fill="#1F0509"/>
<path transform="translate(837,107)" d="m0 0h3v2l3 1v2l3 1v2h-3v-2h-3v-3h-3z" fill="#D2D1D1"/>
<path transform="translate(93,815)" d="m0 0h3v3h2v3l-3-1v-2h-2v3h-3v-3z" fill="#D2D1D1"/>
<path transform="translate(836,689)" d="m0 0 3 1 3 5-4 1h-2z" fill="#570C17"/>
<path transform="translate(612,471)" d="m0 0h1l-1 9-3 1 1-8z" fill="#120406"/>
<path transform="translate(409,295)" d="m0 0 3 1v5h-4l-1-4z" fill="#6D0315"/>
<path transform="translate(415,285)" d="m0 0h3l-2 10-4-3v-2l2-1z" fill="#D2D1D1"/>
<path transform="translate(863,242)" d="m0 0h3v3l-5 5h-3v-3h2v-2z" fill="#D2D1D1"/>
<path transform="translate(81,242)" d="m0 0h3l3 3v2h3v3h-3v-2l-3-1v-2h-3z" fill="#D2D1D1"/>
<path transform="translate(574,228)" d="m0 0 2 4 2 6-1 7-2-3z" fill="#D2D1D1"/>
<path transform="translate(871,863)" d="m0 0 4 1 5-1v3h-12v-2z" fill="#5E0C18"/>
<path transform="translate(104,837)" d="m0 0h3v3h-3l-1 3h-2v2h-2v-3h2l1-4 1 1z" fill="#D2D1D1"/>
<path transform="translate(862,771)" d="m0 0 3 1-1 2h-2v2h-3v3h-3v-3h2v-2l4-1z" fill="#D2D1D1"/>
<path transform="translate(93,617)" d="m0 0h3v3h2v3l-3-1v-2h-2l-1 3h-2v-3z" fill="#D2D1D1"/>
<path transform="translate(85,515)" d="m0 0h5v3h-13v-1z" fill="#5D0D18"/>
<path transform="translate(95,484)" d="m0 0 1 3 2 1v3l-3-1v-2h-2l-1 3h-2v-3z" fill="#D2D1D1"/>
<path transform="translate(571,296)" d="m0 0 5 1-1 4-5-1z" fill="#6D0315"/>
<path transform="translate(843,89)" d="m0 0h9l-1 2h-2v3h-3v-3h-3z" fill="#530C16"/>
</svg>
